<?xml version="1.0" encoding="UTF-8" standalone="no"?>
<!DOCTYPE svg PUBLIC "-//W3C//DTD SVG 1.1//EN"
 "http://www.w3.org/Graphics/SVG/1.1/DTD/svg11.dtd">
<!-- Generated by graphviz version 2.40.1 (20161225.0304)
 -->
<!-- Title: %3 Pages: 1 -->
<svg width="382pt" height="188pt"
 viewBox="0.00 0.00 382.14 188.00" xmlns="http://www.w3.org/2000/svg" xmlns:xlink="http://www.w3.org/1999/xlink">
<g id="graph0" class="graph" transform="scale(1 1) rotate(0) translate(4 184)">
<title>%3</title>
<polygon fill="#ffffff" stroke="transparent" points="-4,4 -4,-184 378.139,-184 378.139,4 -4,4"/>
<!-- root -->
<g id="node1" class="node">
<title>root</title>
<ellipse fill="none" stroke="#000000" cx="178.8449" cy="-162" rx="29.795" ry="18"/>
<text text-anchor="middle" x="178.8449" y="-158.3" font-family="Times,serif" font-size="14.00" fill="#000000">root</text>
</g>
<!-- issis|1&#45;6|1 -->
<g id="node2" class="node">
<title>issis|1&#45;6|1</title>
<ellipse fill="none" stroke="#000000" cx="57.8449" cy="-90" rx="57.6901" ry="18"/>
<text text-anchor="middle" x="57.8449" y="-86.3" font-family="Times,serif" font-size="14.00" fill="#000000">issis|1&#45;6|1</text>
</g>
<!-- root&#45;&gt;issis|1&#45;6|1 -->
<g id="edge1" class="edge">
<title>root&#45;&gt;issis|1&#45;6|1</title>
<path fill="none" stroke="#000000" d="M157.491,-149.2936C139.8794,-138.8139 114.5118,-123.7191 93.7799,-111.3828"/>
<polygon fill="#000000" stroke="#000000" points="95.3042,-108.2171 84.9208,-106.1113 91.7247,-114.2327 95.3042,-108.2171"/>
</g>
<!-- s|2&#45;3|&#45;2 -->
<g id="node3" class="node">
<title>s|2&#45;3|&#45;2</title>
<ellipse fill="none" stroke="#000000" cx="178.8449" cy="-90" rx="44.6926" ry="18"/>
<text text-anchor="middle" x="178.8449" y="-86.3" font-family="Times,serif" font-size="14.00" fill="#000000">s|2&#45;3|&#45;2</text>
</g>
<!-- root&#45;&gt;s|2&#45;3|&#45;2 -->
<g id="edge2" class="edge">
<title>root&#45;&gt;s|2&#45;3|&#45;2</title>
<path fill="none" stroke="#000000" d="M172.9291,-144.2022C172.1394,-136.3271 171.9103,-126.875 172.242,-118.0852"/>
<polygon fill="#000000" stroke="#000000" points="175.7518,-118.0532 172.9247,-107.8425 168.7673,-117.5876 175.7518,-118.0532"/>
</g>
<!-- missis|0&#45;6|0 -->
<g id="node6" class="node">
<title>missis|0&#45;6|0</title>
<ellipse fill="none" stroke="#000000" cx="307.8449" cy="-90" rx="66.0889" ry="18"/>
<text text-anchor="middle" x="307.8449" y="-86.3" font-family="Times,serif" font-size="14.00" fill="#000000">missis|0&#45;6|0</text>
</g>
<!-- root&#45;&gt;missis|0&#45;6|0 -->
<g id="edge6" class="edge">
<title>root&#45;&gt;missis|0&#45;6|0</title>
<path fill="none" stroke="#000000" d="M201.0208,-149.6228C219.8883,-139.092 247.4066,-123.733 269.7877,-111.2412"/>
<polygon fill="#000000" stroke="#000000" points="271.6838,-114.1912 278.71,-106.2613 268.2722,-108.0788 271.6838,-114.1912"/>
</g>
<!-- s|2&#45;3|&#45;2&#45;&gt;root -->
<g id="edge3" class="edge">
<title>s|2&#45;3|&#45;2&#45;&gt;root</title>
<path fill="none" stroke="#ff0000" d="M184.7651,-107.8425C185.5527,-115.7236 185.7796,-125.1774 185.4458,-133.9647"/>
<polygon fill="#ff0000" stroke="#ff0000" points="181.9364,-133.9908 184.7606,-144.2022 188.9207,-134.4583 181.9364,-133.9908"/>
</g>
<!-- is|4&#45;6|3 -->
<g id="node4" class="node">
<title>is|4&#45;6|3</title>
<ellipse fill="none" stroke="#000000" cx="121.8449" cy="-18" rx="44.6926" ry="18"/>
<text text-anchor="middle" x="121.8449" y="-14.3" font-family="Times,serif" font-size="14.00" fill="#000000">is|4&#45;6|3</text>
</g>
<!-- s|2&#45;3|&#45;2&#45;&gt;is|4&#45;6|3 -->
<g id="edge4" class="edge">
<title>s|2&#45;3|&#45;2&#45;&gt;is|4&#45;6|3</title>
<path fill="none" stroke="#000000" d="M165.0468,-72.5708C158.1153,-63.8153 149.5863,-53.0418 141.9427,-43.3867"/>
<polygon fill="#000000" stroke="#000000" points="144.4671,-40.9367 135.5159,-35.2687 138.9788,-45.2816 144.4671,-40.9367"/>
</g>
<!-- sis|3&#45;6|2 -->
<g id="node5" class="node">
<title>sis|3&#45;6|2</title>
<ellipse fill="none" stroke="#000000" cx="234.8449" cy="-18" rx="50.0912" ry="18"/>
<text text-anchor="middle" x="234.8449" y="-14.3" font-family="Times,serif" font-size="14.00" fill="#000000">sis|3&#45;6|2</text>
</g>
<!-- s|2&#45;3|&#45;2&#45;&gt;sis|3&#45;6|2 -->
<g id="edge5" class="edge">
<title>s|2&#45;3|&#45;2&#45;&gt;sis|3&#45;6|2</title>
<path fill="none" stroke="#000000" d="M192.4009,-72.5708C199.1606,-63.8797 207.467,-53.2001 214.9339,-43.5998"/>
<polygon fill="#000000" stroke="#000000" points="217.8429,-45.5606 221.2196,-35.5182 212.3174,-41.263 217.8429,-45.5606"/>
</g>
</g>
</svg>
