<?xml version="1.0" encoding="UTF-8" standalone="no"?>
<!DOCTYPE svg PUBLIC "-//W3C//DTD SVG 1.1//EN"
 "http://www.w3.org/Graphics/SVG/1.1/DTD/svg11.dtd">
<!-- Generated by graphviz version 2.40.1 (20161225.0304)
 -->
<!-- Title: %3 Pages: 1 -->
<svg width="482pt" height="260pt"
 viewBox="0.00 0.00 482.25 260.00" xmlns="http://www.w3.org/2000/svg" xmlns:xlink="http://www.w3.org/1999/xlink">
<g id="graph0" class="graph" transform="scale(1 1) rotate(0) translate(4 256)">
<title>%3</title>
<polygon fill="#ffffff" stroke="transparent" points="-4,4 -4,-256 478.2474,-256 478.2474,4 -4,4"/>
<!-- 0 -->
<g id="node1" class="node">
<title>0</title>
<ellipse fill="none" stroke="#000000" cx="298.2474" cy="-234" rx="29.795" ry="18"/>
<text text-anchor="middle" x="298.2474" y="-230.3" font-family="Times,serif" font-size="14.00" fill="#000000">root</text>
</g>
<!-- 1 -->
<g id="node2" class="node">
<title>1</title>
<ellipse fill="none" stroke="#000000" cx="176.2474" cy="-162" rx="27" ry="18"/>
<text text-anchor="middle" x="176.2474" y="-158.3" font-family="Times,serif" font-size="14.00" fill="#000000">i</text>
</g>
<!-- 0&#45;&gt;1 -->
<g id="edge1" class="edge">
<title>0&#45;&gt;1</title>
<path fill="none" stroke="#000000" d="M276.7171,-221.2936C256.9649,-209.6366 227.5368,-192.2691 205.6288,-179.3398"/>
<polygon fill="#000000" stroke="#000000" points="207.1412,-176.1684 196.7502,-174.1 203.5834,-182.1968 207.1412,-176.1684"/>
</g>
<!-- 6 -->
<g id="node7" class="node">
<title>6</title>
<ellipse fill="none" stroke="#000000" cx="249.2474" cy="-162" rx="27" ry="18"/>
<text text-anchor="middle" x="249.2474" y="-158.3" font-family="Times,serif" font-size="14.00" fill="#000000">s</text>
</g>
<!-- 0&#45;&gt;6 -->
<g id="edge6" class="edge">
<title>0&#45;&gt;6</title>
<path fill="none" stroke="#000000" d="M286.8827,-217.3008C280.7601,-208.3043 273.0837,-197.0247 266.2633,-187.0029"/>
<polygon fill="#000000" stroke="#000000" points="269.0703,-184.9066 260.5505,-178.6087 263.2833,-188.845 269.0703,-184.9066"/>
</g>
<!-- 13 -->
<g id="node14" class="node">
<title>13</title>
<ellipse fill="none" stroke="#000000" cx="348.2474" cy="-162" rx="53.8905" ry="18"/>
<text text-anchor="middle" x="348.2474" y="-158.3" font-family="Times,serif" font-size="14.00" fill="#000000">mississi$</text>
</g>
<!-- 0&#45;&gt;13 -->
<g id="edge13" class="edge">
<title>0&#45;&gt;13</title>
<path fill="none" stroke="#000000" d="M309.8441,-217.3008C315.9131,-208.5614 323.4784,-197.6674 330.2857,-187.8649"/>
<polygon fill="#000000" stroke="#000000" points="333.1868,-189.8233 336.016,-179.6132 327.4372,-185.8305 333.1868,-189.8233"/>
</g>
<!-- 14 -->
<g id="node15" class="node">
<title>14</title>
<ellipse fill="none" stroke="#000000" cx="447.2474" cy="-162" rx="27" ry="18"/>
<text text-anchor="middle" x="447.2474" y="-158.3" font-family="Times,serif" font-size="14.00" fill="#000000">$</text>
</g>
<!-- 0&#45;&gt;14 -->
<g id="edge14" class="edge">
<title>0&#45;&gt;14</title>
<path fill="none" stroke="#000000" d="M322.1156,-222.7455C345.027,-211.9064 380.5797,-194.9931 411.2474,-180 412.9895,-179.1483 414.7768,-178.2698 416.5793,-177.3802"/>
<polygon fill="#000000" stroke="#000000" points="418.1757,-180.4953 425.5764,-172.9137 415.0631,-174.2254 418.1757,-180.4953"/>
</g>
<!-- 2 -->
<g id="node3" class="node">
<title>2</title>
<ellipse fill="none" stroke="#000000" cx="103.2474" cy="-90" rx="27" ry="18"/>
<text text-anchor="middle" x="103.2474" y="-86.3" font-family="Times,serif" font-size="14.00" fill="#000000">ssi</text>
</g>
<!-- 1&#45;&gt;2 -->
<g id="edge2" class="edge">
<title>1&#45;&gt;2</title>
<path fill="none" stroke="#000000" d="M161.1218,-147.0816C150.9129,-137.0125 137.2596,-123.5463 125.7781,-112.2221"/>
<polygon fill="#000000" stroke="#000000" points="128.1823,-109.6773 118.6048,-105.147 123.2668,-114.6611 128.1823,-109.6773"/>
</g>
<!-- 5 -->
<g id="node6" class="node">
<title>5</title>
<ellipse fill="none" stroke="#000000" cx="176.2474" cy="-90" rx="27" ry="18"/>
<text text-anchor="middle" x="176.2474" y="-86.3" font-family="Times,serif" font-size="14.00" fill="#000000">$</text>
</g>
<!-- 1&#45;&gt;5 -->
<g id="edge5" class="edge">
<title>1&#45;&gt;5</title>
<path fill="none" stroke="#000000" d="M176.2474,-143.8314C176.2474,-136.131 176.2474,-126.9743 176.2474,-118.4166"/>
<polygon fill="#000000" stroke="#000000" points="179.7475,-118.4132 176.2474,-108.4133 172.7475,-118.4133 179.7475,-118.4132"/>
</g>
<!-- 3 -->
<g id="node4" class="node">
<title>3</title>
<ellipse fill="none" stroke="#000000" cx="29.2474" cy="-18" rx="29.4969" ry="18"/>
<text text-anchor="middle" x="29.2474" y="-14.3" font-family="Times,serif" font-size="14.00" fill="#000000">ssi$</text>
</g>
<!-- 2&#45;&gt;3 -->
<g id="edge3" class="edge">
<title>2&#45;&gt;3</title>
<path fill="none" stroke="#000000" d="M87.9146,-75.0816C77.6353,-65.0801 63.9112,-51.7269 52.3214,-40.4504"/>
<polygon fill="#000000" stroke="#000000" points="54.6792,-37.8611 45.0712,-33.3961 49.7977,-42.8782 54.6792,-37.8611"/>
</g>
<!-- 4 -->
<g id="node5" class="node">
<title>4</title>
<ellipse fill="none" stroke="#000000" cx="103.2474" cy="-18" rx="27" ry="18"/>
<text text-anchor="middle" x="103.2474" y="-14.3" font-family="Times,serif" font-size="14.00" fill="#000000">$</text>
</g>
<!-- 2&#45;&gt;4 -->
<g id="edge4" class="edge">
<title>2&#45;&gt;4</title>
<path fill="none" stroke="#000000" d="M103.2474,-71.8314C103.2474,-64.131 103.2474,-54.9743 103.2474,-46.4166"/>
<polygon fill="#000000" stroke="#000000" points="106.7475,-46.4132 103.2474,-36.4133 99.7475,-46.4133 106.7475,-46.4132"/>
</g>
<!-- 7 -->
<g id="node8" class="node">
<title>7</title>
<ellipse fill="none" stroke="#000000" cx="249.2474" cy="-90" rx="27" ry="18"/>
<text text-anchor="middle" x="249.2474" y="-86.3" font-family="Times,serif" font-size="14.00" fill="#000000">i</text>
</g>
<!-- 6&#45;&gt;7 -->
<g id="edge7" class="edge">
<title>6&#45;&gt;7</title>
<path fill="none" stroke="#000000" d="M249.2474,-143.8314C249.2474,-136.131 249.2474,-126.9743 249.2474,-118.4166"/>
<polygon fill="#000000" stroke="#000000" points="252.7475,-118.4132 249.2474,-108.4133 245.7475,-118.4133 252.7475,-118.4132"/>
</g>
<!-- 10 -->
<g id="node11" class="node">
<title>10</title>
<ellipse fill="none" stroke="#000000" cx="325.2474" cy="-90" rx="27" ry="18"/>
<text text-anchor="middle" x="325.2474" y="-86.3" font-family="Times,serif" font-size="14.00" fill="#000000">si</text>
</g>
<!-- 6&#45;&gt;10 -->
<g id="edge10" class="edge">
<title>6&#45;&gt;10</title>
<path fill="none" stroke="#000000" d="M264.9947,-147.0816C275.6944,-136.945 290.0284,-123.3654 302.0311,-111.9944"/>
<polygon fill="#000000" stroke="#000000" points="304.6679,-114.3177 309.5203,-104.8993 299.8537,-109.236 304.6679,-114.3177"/>
</g>
<!-- 8 -->
<g id="node9" class="node">
<title>8</title>
<ellipse fill="none" stroke="#000000" cx="177.2474" cy="-18" rx="29.4969" ry="18"/>
<text text-anchor="middle" x="177.2474" y="-14.3" font-family="Times,serif" font-size="14.00" fill="#000000">ssi$</text>
</g>
<!-- 7&#45;&gt;8 -->
<g id="edge8" class="edge">
<title>7&#45;&gt;8</title>
<path fill="none" stroke="#000000" d="M233.9781,-74.7307C224.1846,-64.9372 211.2861,-52.0387 200.263,-41.0156"/>
<polygon fill="#000000" stroke="#000000" points="202.5385,-38.3413 192.9925,-33.7451 197.5887,-43.2911 202.5385,-38.3413"/>
</g>
<!-- 9 -->
<g id="node10" class="node">
<title>9</title>
<ellipse fill="none" stroke="#000000" cx="251.2474" cy="-18" rx="27" ry="18"/>
<text text-anchor="middle" x="251.2474" y="-14.3" font-family="Times,serif" font-size="14.00" fill="#000000">$</text>
</g>
<!-- 7&#45;&gt;9 -->
<g id="edge9" class="edge">
<title>7&#45;&gt;9</title>
<path fill="none" stroke="#000000" d="M249.7521,-71.8314C249.966,-64.131 250.2203,-54.9743 250.4581,-46.4166"/>
<polygon fill="#000000" stroke="#000000" points="253.9568,-46.5066 250.7359,-36.4133 246.9595,-46.3122 253.9568,-46.5066"/>
</g>
<!-- 11 -->
<g id="node12" class="node">
<title>11</title>
<ellipse fill="none" stroke="#000000" cx="325.2474" cy="-18" rx="29.4969" ry="18"/>
<text text-anchor="middle" x="325.2474" y="-14.3" font-family="Times,serif" font-size="14.00" fill="#000000">ssi$</text>
</g>
<!-- 10&#45;&gt;11 -->
<g id="edge11" class="edge">
<title>10&#45;&gt;11</title>
<path fill="none" stroke="#000000" d="M325.2474,-71.8314C325.2474,-64.131 325.2474,-54.9743 325.2474,-46.4166"/>
<polygon fill="#000000" stroke="#000000" points="328.7475,-46.4132 325.2474,-36.4133 321.7475,-46.4133 328.7475,-46.4132"/>
</g>
<!-- 12 -->
<g id="node13" class="node">
<title>12</title>
<ellipse fill="none" stroke="#000000" cx="399.2474" cy="-18" rx="27" ry="18"/>
<text text-anchor="middle" x="399.2474" y="-14.3" font-family="Times,serif" font-size="14.00" fill="#000000">$</text>
</g>
<!-- 10&#45;&gt;12 -->
<g id="edge12" class="edge">
<title>10&#45;&gt;12</title>
<path fill="none" stroke="#000000" d="M340.5803,-75.0816C350.9984,-64.945 364.9552,-51.3654 376.6421,-39.9944"/>
<polygon fill="#000000" stroke="#000000" points="379.2077,-42.3815 383.9342,-32.8993 374.3262,-37.3644 379.2077,-42.3815"/>
</g>
</g>
</svg>
