<?xml version="1.0" encoding="UTF-8" standalone="no"?>
<!DOCTYPE svg PUBLIC "-//W3C//DTD SVG 1.1//EN"
 "http://www.w3.org/Graphics/SVG/1.1/DTD/svg11.dtd">
<!-- Generated by graphviz version 2.40.1 (20161225.0304)
 -->
<!-- Title: %3 Pages: 1 -->
<svg width="355pt" height="116pt"
 viewBox="0.00 0.00 354.54 116.00" xmlns="http://www.w3.org/2000/svg" xmlns:xlink="http://www.w3.org/1999/xlink">
<g id="graph0" class="graph" transform="scale(1 1) rotate(0) translate(4 112)">
<title>%3</title>
<polygon fill="#ffffff" stroke="transparent" points="-4,4 -4,-112 350.5404,-112 350.5404,4 -4,4"/>
<!-- root -->
<g id="node1" class="node">
<title>root</title>
<ellipse fill="none" stroke="#000000" cx="165.0456" cy="-90" rx="29.795" ry="18"/>
<text text-anchor="middle" x="165.0456" y="-86.3" font-family="Times,serif" font-size="14.00" fill="#000000">root</text>
</g>
<!-- iss|1&#45;4|1 -->
<g id="node2" class="node">
<title>iss|1&#45;4|1</title>
<ellipse fill="none" stroke="#000000" cx="50.0456" cy="-18" rx="50.0912" ry="18"/>
<text text-anchor="middle" x="50.0456" y="-14.3" font-family="Times,serif" font-size="14.00" fill="#000000">iss|1&#45;4|1</text>
</g>
<!-- root&#45;&gt;iss|1&#45;4|1 -->
<g id="edge1" class="edge">
<title>root&#45;&gt;iss|1&#45;4|1</title>
<path fill="none" stroke="#000000" d="M144.2199,-76.9613C127.381,-66.4187 103.3401,-51.367 83.7637,-39.1105"/>
<polygon fill="#000000" stroke="#000000" points="85.4583,-36.0421 75.1252,-33.702 81.7437,-41.9752 85.4583,-36.0421"/>
</g>
<!-- ss|2&#45;4|2 -->
<g id="node3" class="node">
<title>ss|2&#45;4|2</title>
<ellipse fill="none" stroke="#000000" cx="165.0456" cy="-18" rx="46.5926" ry="18"/>
<text text-anchor="middle" x="165.0456" y="-14.3" font-family="Times,serif" font-size="14.00" fill="#000000">ss|2&#45;4|2</text>
</g>
<!-- root&#45;&gt;ss|2&#45;4|2 -->
<g id="edge2" class="edge">
<title>root&#45;&gt;ss|2&#45;4|2</title>
<path fill="none" stroke="#000000" d="M165.0456,-71.8314C165.0456,-64.131 165.0456,-54.9743 165.0456,-46.4166"/>
<polygon fill="#000000" stroke="#000000" points="168.5457,-46.4132 165.0456,-36.4133 161.5457,-46.4133 168.5457,-46.4132"/>
</g>
<!-- miss|0&#45;4|0 -->
<g id="node4" class="node">
<title>miss|0&#45;4|0</title>
<ellipse fill="none" stroke="#000000" cx="288.0456" cy="-18" rx="58.4896" ry="18"/>
<text text-anchor="middle" x="288.0456" y="-14.3" font-family="Times,serif" font-size="14.00" fill="#000000">miss|0&#45;4|0</text>
</g>
<!-- root&#45;&gt;miss|0&#45;4|0 -->
<g id="edge3" class="edge">
<title>root&#45;&gt;miss|0&#45;4|0</title>
<path fill="none" stroke="#000000" d="M186.7524,-77.2936C204.7354,-66.7669 230.6735,-51.5837 251.7998,-39.217"/>
<polygon fill="#000000" stroke="#000000" points="253.6601,-42.1837 260.5221,-34.1113 250.1238,-36.1426 253.6601,-42.1837"/>
</g>
</g>
</svg>
