<?xml version="1.0" encoding="UTF-8" standalone="no"?>
<!DOCTYPE svg PUBLIC "-//W3C//DTD SVG 1.1//EN"
 "http://www.w3.org/Graphics/SVG/1.1/DTD/svg11.dtd">
<!-- Generated by graphviz version 2.40.1 (20161225.0304)
 -->
<!-- Title: %3 Pages: 1 -->
<svg width="204pt" height="116pt"
 viewBox="0.00 0.00 204.04 116.00" xmlns="http://www.w3.org/2000/svg" xmlns:xlink="http://www.w3.org/1999/xlink">
<g id="graph0" class="graph" transform="scale(1 1) rotate(0) translate(4 112)">
<title>%3</title>
<polygon fill="#ffffff" stroke="transparent" points="-4,4 -4,-112 200.0421,-112 200.0421,4 -4,4"/>
<!-- root -->
<g id="node1" class="node">
<title>root</title>
<ellipse fill="none" stroke="#000000" cx="93.2964" cy="-90" rx="29.795" ry="18"/>
<text text-anchor="middle" x="93.2964" y="-86.3" font-family="Times,serif" font-size="14.00" fill="#000000">root</text>
</g>
<!-- i|1&#45;2|1 -->
<g id="node2" class="node">
<title>i|1&#45;2|1</title>
<ellipse fill="none" stroke="#000000" cx="40.2964" cy="-18" rx="40.0939" ry="18"/>
<text text-anchor="middle" x="40.2964" y="-14.3" font-family="Times,serif" font-size="14.00" fill="#000000">i|1&#45;2|1</text>
</g>
<!-- root&#45;&gt;i|1&#45;2|1 -->
<g id="edge1" class="edge">
<title>root&#45;&gt;i|1&#45;2|1</title>
<path fill="none" stroke="#000000" d="M81.0039,-73.3008C74.4762,-64.4329 66.3154,-53.3465 59.0181,-43.4332"/>
<polygon fill="#000000" stroke="#000000" points="61.6372,-41.0872 52.8903,-35.1086 55.9998,-45.2369 61.6372,-41.0872"/>
</g>
<!-- mi|0&#45;2|0 -->
<g id="node3" class="node">
<title>mi|0&#45;2|0</title>
<ellipse fill="none" stroke="#000000" cx="147.2964" cy="-18" rx="48.9926" ry="18"/>
<text text-anchor="middle" x="147.2964" y="-14.3" font-family="Times,serif" font-size="14.00" fill="#000000">mi|0&#45;2|0</text>
</g>
<!-- root&#45;&gt;mi|0&#45;2|0 -->
<g id="edge2" class="edge">
<title>root&#45;&gt;mi|0&#45;2|0</title>
<path fill="none" stroke="#000000" d="M105.8208,-73.3008C112.3754,-64.5614 120.5459,-53.6674 127.8977,-43.8649"/>
<polygon fill="#000000" stroke="#000000" points="130.8865,-45.7132 134.0865,-35.6132 125.2865,-41.5132 130.8865,-45.7132"/>
</g>
</g>
</svg>
