<?xml version="1.0" encoding="UTF-8" standalone="no"?>
<!DOCTYPE svg PUBLIC "-//W3C//DTD SVG 1.1//EN"
 "http://www.w3.org/Graphics/SVG/1.1/DTD/svg11.dtd">
<!-- Generated by graphviz version 2.40.1 (20161225.0304)
 -->
<!-- Title: %3 Pages: 1 -->
<svg width="362pt" height="188pt"
 viewBox="0.00 0.00 362.39 188.00" xmlns="http://www.w3.org/2000/svg" xmlns:xlink="http://www.w3.org/1999/xlink">
<g id="graph0" class="graph" transform="scale(1 1) rotate(0) translate(4 184)">
<title>%3</title>
<polygon fill="#ffffff" stroke="transparent" points="-4,4 -4,-184 358.3899,-184 358.3899,4 -4,4"/>
<!-- root -->
<g id="node1" class="node">
<title>root</title>
<ellipse fill="none" stroke="#000000" cx="167.6453" cy="-162" rx="29.795" ry="18"/>
<text text-anchor="middle" x="167.6453" y="-158.3" font-family="Times,serif" font-size="14.00" fill="#000000">root</text>
</g>
<!-- issi|1&#45;5|1 -->
<g id="node2" class="node">
<title>issi|1&#45;5|1</title>
<ellipse fill="none" stroke="#000000" cx="52.6453" cy="-90" rx="52.7911" ry="18"/>
<text text-anchor="middle" x="52.6453" y="-86.3" font-family="Times,serif" font-size="14.00" fill="#000000">issi|1&#45;5|1</text>
</g>
<!-- root&#45;&gt;issi|1&#45;5|1 -->
<g id="edge1" class="edge">
<title>root&#45;&gt;issi|1&#45;5|1</title>
<path fill="none" stroke="#000000" d="M146.8197,-148.9613C130.093,-138.489 106.2601,-123.5675 86.7556,-111.356"/>
<polygon fill="#000000" stroke="#000000" points="88.4729,-108.3018 78.1397,-105.9617 84.7582,-114.2349 88.4729,-108.3018"/>
</g>
<!-- s|2&#45;3|&#45;2 -->
<g id="node3" class="node">
<title>s|2&#45;3|&#45;2</title>
<ellipse fill="none" stroke="#000000" cx="167.6453" cy="-90" rx="44.6926" ry="18"/>
<text text-anchor="middle" x="167.6453" y="-86.3" font-family="Times,serif" font-size="14.00" fill="#000000">s|2&#45;3|&#45;2</text>
</g>
<!-- root&#45;&gt;s|2&#45;3|&#45;2 -->
<g id="edge2" class="edge">
<title>root&#45;&gt;s|2&#45;3|&#45;2</title>
<path fill="none" stroke="#000000" d="M161.7296,-144.2022C160.9398,-136.3271 160.7108,-126.875 161.0425,-118.0852"/>
<polygon fill="#000000" stroke="#000000" points="164.5523,-118.0532 161.7251,-107.8425 157.5678,-117.5876 164.5523,-118.0532"/>
</g>
<!-- missi|0&#45;5|0 -->
<g id="node6" class="node">
<title>missi|0&#45;5|0</title>
<ellipse fill="none" stroke="#000000" cx="292.6453" cy="-90" rx="61.99" ry="18"/>
<text text-anchor="middle" x="292.6453" y="-86.3" font-family="Times,serif" font-size="14.00" fill="#000000">missi|0&#45;5|0</text>
</g>
<!-- root&#45;&gt;missi|0&#45;5|0 -->
<g id="edge6" class="edge">
<title>root&#45;&gt;missi|0&#45;5|0</title>
<path fill="none" stroke="#000000" d="M189.4187,-149.4586C207.6576,-138.9529 234.0924,-123.7265 255.6446,-111.3124"/>
<polygon fill="#000000" stroke="#000000" points="257.6258,-114.2104 264.5442,-106.1862 254.1319,-108.1446 257.6258,-114.2104"/>
</g>
<!-- s|2&#45;3|&#45;2&#45;&gt;root -->
<g id="edge3" class="edge">
<title>s|2&#45;3|&#45;2&#45;&gt;root</title>
<path fill="none" stroke="#ff0000" d="M173.5655,-107.8425C174.3532,-115.7236 174.5801,-125.1774 174.2463,-133.9647"/>
<polygon fill="#ff0000" stroke="#ff0000" points="170.7368,-133.9908 173.5611,-144.2022 177.7212,-134.4583 170.7368,-133.9908"/>
</g>
<!-- i|4&#45;5|3 -->
<g id="node4" class="node">
<title>i|4&#45;5|3</title>
<ellipse fill="none" stroke="#000000" cx="115.6453" cy="-18" rx="40.0939" ry="18"/>
<text text-anchor="middle" x="115.6453" y="-14.3" font-family="Times,serif" font-size="14.00" fill="#000000">i|4&#45;5|3</text>
</g>
<!-- s|2&#45;3|&#45;2&#45;&gt;i|4&#45;5|3 -->
<g id="edge4" class="edge">
<title>s|2&#45;3|&#45;2&#45;&gt;i|4&#45;5|3</title>
<path fill="none" stroke="#000000" d="M155.0576,-72.5708C148.7342,-63.8153 140.9533,-53.0418 133.9802,-43.3867"/>
<polygon fill="#000000" stroke="#000000" points="136.8095,-41.3263 128.1172,-35.2687 131.1347,-45.4247 136.8095,-41.3263"/>
</g>
<!-- si|3&#45;5|2 -->
<g id="node5" class="node">
<title>si|3&#45;5|2</title>
<ellipse fill="none" stroke="#000000" cx="218.6453" cy="-18" rx="44.6926" ry="18"/>
<text text-anchor="middle" x="218.6453" y="-14.3" font-family="Times,serif" font-size="14.00" fill="#000000">si|3&#45;5|2</text>
</g>
<!-- s|2&#45;3|&#45;2&#45;&gt;si|3&#45;5|2 -->
<g id="edge5" class="edge">
<title>s|2&#45;3|&#45;2&#45;&gt;si|3&#45;5|2</title>
<path fill="none" stroke="#000000" d="M179.991,-72.5708C186.085,-63.9675 193.5593,-53.4156 200.3058,-43.8911"/>
<polygon fill="#000000" stroke="#000000" points="203.3125,-45.7016 206.2366,-35.5182 197.6003,-41.6554 203.3125,-45.7016"/>
</g>
</g>
</svg>
