<?xml version="1.0" encoding="UTF-8" standalone="no"?>
<!DOCTYPE svg PUBLIC "-//W3C//DTD SVG 1.1//EN"
 "http://www.w3.org/Graphics/SVG/1.1/DTD/svg11.dtd">
<!-- Generated by graphviz version 2.40.1 (20161225.0304)
 -->
<!-- Title: %3 Pages: 1 -->
<svg width="594pt" height="404pt"
 viewBox="0.00 0.00 594.42 404.00" xmlns="http://www.w3.org/2000/svg" xmlns:xlink="http://www.w3.org/1999/xlink">
<g id="graph0" class="graph" transform="scale(1 1) rotate(0) translate(4 400)">
<title>%3</title>
<polygon fill="#ffffff" stroke="transparent" points="-4,4 -4,-400 590.4225,-400 590.4225,4 -4,4"/>
<!-- root -->
<g id="node1" class="node">
<title>root</title>
<ellipse fill="none" stroke="#000000" cx="285.5263" cy="-378" rx="29.795" ry="18"/>
<text text-anchor="middle" x="285.5263" y="-374.3" font-family="Times,serif" font-size="14.00" fill="#000000">root</text>
</g>
<!-- i|1&#45;2|&#45;6 -->
<g id="node2" class="node">
<title>i|1&#45;2|&#45;6</title>
<ellipse fill="none" stroke="#000000" cx="188.5263" cy="-306" rx="42.7926" ry="18"/>
<text text-anchor="middle" x="188.5263" y="-302.3" font-family="Times,serif" font-size="14.00" fill="#000000">i|1&#45;2|&#45;6</text>
</g>
<!-- root&#45;&gt;i|1&#45;2|&#45;6 -->
<g id="edge1" class="edge">
<title>root&#45;&gt;i|1&#45;2|&#45;6</title>
<path fill="none" stroke="#000000" d="M263.3633,-365.4586C248.3975,-355.4641 228.815,-341.1971 213.354,-329.1436"/>
<polygon fill="#000000" stroke="#000000" points="215.2552,-326.1845 205.2441,-322.7162 210.9073,-331.6705 215.2552,-326.1845"/>
</g>
<!-- s|2&#45;3|&#45;2 -->
<g id="node7" class="node">
<title>s|2&#45;3|&#45;2</title>
<ellipse fill="none" stroke="#000000" cx="303.5263" cy="-234" rx="44.6926" ry="18"/>
<text text-anchor="middle" x="303.5263" y="-230.3" font-family="Times,serif" font-size="14.00" fill="#000000">s|2&#45;3|&#45;2</text>
</g>
<!-- root&#45;&gt;s|2&#45;3|&#45;2 -->
<g id="edge8" class="edge">
<title>root&#45;&gt;s|2&#45;3|&#45;2</title>
<path fill="none" stroke="#000000" d="M283.1258,-360.0535C283.7035,-335.4774 288.9717,-291.1008 294.5337,-262.0974"/>
<polygon fill="#000000" stroke="#000000" points="297.9884,-262.6746 296.588,-252.1727 291.1337,-261.2557 297.9884,-262.6746"/>
</g>
<!-- mississi$|0&#45;9|0 -->
<g id="node14" class="node">
<title>mississi$|0&#45;9|0</title>
<ellipse fill="none" stroke="#000000" cx="402.5263" cy="-306" rx="79.8859" ry="18"/>
<text text-anchor="middle" x="402.5263" y="-302.3" font-family="Times,serif" font-size="14.00" fill="#000000">mississi$|0&#45;9|0</text>
</g>
<!-- root&#45;&gt;mississi$|0&#45;9|0 -->
<g id="edge18" class="edge">
<title>root&#45;&gt;mississi$|0&#45;9|0</title>
<path fill="none" stroke="#000000" d="M306.4435,-365.1278C322.9734,-354.9556 346.4457,-340.5111 366.0525,-328.4454"/>
<polygon fill="#000000" stroke="#000000" points="368.068,-331.3148 374.7502,-323.0929 364.3993,-325.3532 368.068,-331.3148"/>
</g>
<!-- $|8&#45;9|8 -->
<g id="node15" class="node">
<title>$|8&#45;9|8</title>
<ellipse fill="none" stroke="#000000" cx="543.5263" cy="-306" rx="42.7926" ry="18"/>
<text text-anchor="middle" x="543.5263" y="-302.3" font-family="Times,serif" font-size="14.00" fill="#000000">$|8&#45;9|8</text>
</g>
<!-- root&#45;&gt;$|8&#45;9|8 -->
<g id="edge19" class="edge">
<title>root&#45;&gt;$|8&#45;9|8</title>
<path fill="none" stroke="#000000" d="M313.3716,-371.4216C353.139,-361.8637 428.378,-343.1753 491.5263,-324 494.68,-323.0424 497.9281,-322.0159 501.1879,-320.9566"/>
<polygon fill="#000000" stroke="#000000" points="502.5375,-324.1962 510.9195,-317.7161 500.3259,-317.5548 502.5375,-324.1962"/>
</g>
<!-- i|1&#45;2|&#45;6&#45;&gt;root -->
<g id="edge2" class="edge">
<title>i|1&#45;2|&#45;6&#45;&gt;root</title>
<path fill="none" stroke="#ff0000" d="M213.7643,-320.6109C228.7288,-330.7554 247.4271,-344.455 262.066,-355.9251"/>
<polygon fill="#ff0000" stroke="#ff0000" points="260.1564,-358.8789 270.1571,-362.3771 264.5207,-353.4059 260.1564,-358.8789"/>
</g>
<!-- ssi|2&#45;5|&#45;3 -->
<g id="node3" class="node">
<title>ssi|2&#45;5|&#45;3</title>
<ellipse fill="none" stroke="#000000" cx="188.5263" cy="-234" rx="52.7911" ry="18"/>
<text text-anchor="middle" x="188.5263" y="-230.3" font-family="Times,serif" font-size="14.00" fill="#000000">ssi|2&#45;5|&#45;3</text>
</g>
<!-- i|1&#45;2|&#45;6&#45;&gt;ssi|2&#45;5|&#45;3 -->
<g id="edge3" class="edge">
<title>i|1&#45;2|&#45;6&#45;&gt;ssi|2&#45;5|&#45;3</title>
<path fill="none" stroke="#000000" d="M188.5263,-287.8314C188.5263,-280.131 188.5263,-270.9743 188.5263,-262.4166"/>
<polygon fill="#000000" stroke="#000000" points="192.0264,-262.4132 188.5263,-252.4133 185.0264,-262.4133 192.0264,-262.4132"/>
</g>
<!-- $|8&#45;9|7 -->
<g id="node6" class="node">
<title>$|8&#45;9|7</title>
<ellipse fill="none" stroke="#000000" cx="74.5263" cy="-234" rx="42.7926" ry="18"/>
<text text-anchor="middle" x="74.5263" y="-230.3" font-family="Times,serif" font-size="14.00" fill="#000000">$|8&#45;9|7</text>
</g>
<!-- i|1&#45;2|&#45;6&#45;&gt;$|8&#45;9|7 -->
<g id="edge7" class="edge">
<title>i|1&#45;2|&#45;6&#45;&gt;$|8&#45;9|7</title>
<path fill="none" stroke="#000000" d="M164.6281,-290.9064C147.9078,-280.3462 125.3719,-266.1131 107.0214,-254.5232"/>
<polygon fill="#000000" stroke="#000000" points="108.7168,-251.4544 98.3929,-249.0737 104.9789,-257.3729 108.7168,-251.4544"/>
</g>
<!-- ssi$|5&#45;9|1 -->
<g id="node4" class="node">
<title>ssi$|5&#45;9|1</title>
<ellipse fill="none" stroke="#000000" cx="190.5263" cy="-162" rx="55.7903" ry="18"/>
<text text-anchor="middle" x="190.5263" y="-158.3" font-family="Times,serif" font-size="14.00" fill="#000000">ssi$|5&#45;9|1</text>
</g>
<!-- ssi|2&#45;5|&#45;3&#45;&gt;ssi$|5&#45;9|1 -->
<g id="edge5" class="edge">
<title>ssi|2&#45;5|&#45;3&#45;&gt;ssi$|5&#45;9|1</title>
<path fill="none" stroke="#000000" d="M189.031,-215.8314C189.2449,-208.131 189.4992,-198.9743 189.7369,-190.4166"/>
<polygon fill="#000000" stroke="#000000" points="193.2357,-190.5066 190.0148,-180.4133 186.2384,-190.3122 193.2357,-190.5066"/>
</g>
<!-- $|8&#45;9|4 -->
<g id="node5" class="node">
<title>$|8&#45;9|4</title>
<ellipse fill="none" stroke="#000000" cx="73.5263" cy="-162" rx="42.7926" ry="18"/>
<text text-anchor="middle" x="73.5263" y="-158.3" font-family="Times,serif" font-size="14.00" fill="#000000">$|8&#45;9|4</text>
</g>
<!-- ssi|2&#45;5|&#45;3&#45;&gt;$|8&#45;9|4 -->
<g id="edge6" class="edge">
<title>ssi|2&#45;5|&#45;3&#45;&gt;$|8&#45;9|4</title>
<path fill="none" stroke="#000000" d="M163.289,-218.1993C146.4704,-207.6694 124.2069,-193.7305 106.0604,-182.3692"/>
<polygon fill="#000000" stroke="#000000" points="107.8578,-179.3652 97.5247,-177.0251 104.1432,-185.2983 107.8578,-179.3652"/>
</g>
<!-- si|3&#45;5|&#45;4 -->
<g id="node11" class="node">
<title>si|3&#45;5|&#45;4</title>
<ellipse fill="none" stroke="#000000" cx="350.5263" cy="-162" rx="48.1917" ry="18"/>
<text text-anchor="middle" x="350.5263" y="-158.3" font-family="Times,serif" font-size="14.00" fill="#000000">si|3&#45;5|&#45;4</text>
</g>
<!-- ssi|2&#45;5|&#45;3&#45;&gt;si|3&#45;5|&#45;4 -->
<g id="edge4" class="edge">
<title>ssi|2&#45;5|&#45;3&#45;&gt;si|3&#45;5|&#45;4</title>
<path fill="none" stroke="#ff0000" d="M220.92,-219.6028C246.5251,-208.2228 282.4132,-192.2725 309.9344,-180.0408"/>
<polygon fill="#ff0000" stroke="#ff0000" points="311.5729,-183.1428 319.2895,-175.883 308.7299,-176.7461 311.5729,-183.1428"/>
</g>
<!-- s|2&#45;3|&#45;2&#45;&gt;root -->
<g id="edge9" class="edge">
<title>s|2&#45;3|&#45;2&#45;&gt;root</title>
<path fill="none" stroke="#ff0000" d="M305.9193,-252.256C305.3009,-277.0591 299.9869,-321.6142 294.4072,-350.4825"/>
<polygon fill="#ff0000" stroke="#ff0000" points="290.9663,-349.8384 292.3477,-360.3428 297.8184,-351.2696 290.9663,-349.8384"/>
</g>
<!-- i|4&#45;5|&#45;5 -->
<g id="node8" class="node">
<title>i|4&#45;5|&#45;5</title>
<ellipse fill="none" stroke="#000000" cx="246.5263" cy="-90" rx="42.7926" ry="18"/>
<text text-anchor="middle" x="246.5263" y="-86.3" font-family="Times,serif" font-size="14.00" fill="#000000">i|4&#45;5|&#45;5</text>
</g>
<!-- s|2&#45;3|&#45;2&#45;&gt;i|4&#45;5|&#45;5 -->
<g id="edge10" class="edge">
<title>s|2&#45;3|&#45;2&#45;&gt;i|4&#45;5|&#45;5</title>
<path fill="none" stroke="#000000" d="M296.4224,-216.0535C286.6517,-191.3696 268.9744,-146.7111 257.4975,-117.7167"/>
<polygon fill="#000000" stroke="#000000" points="260.6545,-116.1826 253.7196,-108.1727 254.1459,-118.759 260.6545,-116.1826"/>
</g>
<!-- s|2&#45;3|&#45;2&#45;&gt;si|3&#45;5|&#45;4 -->
<g id="edge14" class="edge">
<title>s|2&#45;3|&#45;2&#45;&gt;si|3&#45;5|&#45;4</title>
<path fill="none" stroke="#000000" d="M314.9037,-216.5708C320.4624,-208.0553 327.2673,-197.6308 333.4346,-188.183"/>
<polygon fill="#000000" stroke="#000000" points="336.5553,-189.8052 339.0908,-179.5182 330.6937,-185.9789 336.5553,-189.8052"/>
</g>
<!-- i|4&#45;5|&#45;5&#45;&gt;i|1&#45;2|&#45;6 -->
<g id="edge11" class="edge">
<title>i|4&#45;5|&#45;5&#45;&gt;i|1&#45;2|&#45;6</title>
<path fill="none" stroke="#ff0000" d="M204.2381,-93.9994C145.4866,-100.5298 43.8482,-115.6869 21.5263,-144 -8.1929,-181.6957 -5.9509,-213.3575 22.5263,-252 36.6207,-271.1256 95.7165,-287.0793 139.4049,-296.5726"/>
<polygon fill="#ff0000" stroke="#ff0000" points="138.7966,-300.0213 149.3052,-298.6718 140.2487,-293.1736 138.7966,-300.0213"/>
</g>
<!-- ssi$|5&#45;9|3 -->
<g id="node9" class="node">
<title>ssi$|5&#45;9|3</title>
<ellipse fill="none" stroke="#000000" cx="188.5263" cy="-18" rx="55.7903" ry="18"/>
<text text-anchor="middle" x="188.5263" y="-14.3" font-family="Times,serif" font-size="14.00" fill="#000000">ssi$|5&#45;9|3</text>
</g>
<!-- i|4&#45;5|&#45;5&#45;&gt;ssi$|5&#45;9|3 -->
<g id="edge12" class="edge">
<title>i|4&#45;5|&#45;5&#45;&gt;ssi$|5&#45;9|3</title>
<path fill="none" stroke="#000000" d="M232.7811,-72.937C225.6626,-64.1003 216.8298,-53.1354 208.9319,-43.3311"/>
<polygon fill="#000000" stroke="#000000" points="211.5747,-41.0326 202.5757,-35.4407 206.1234,-45.4239 211.5747,-41.0326"/>
</g>
<!-- $|8&#45;9|6 -->
<g id="node10" class="node">
<title>$|8&#45;9|6</title>
<ellipse fill="none" stroke="#000000" cx="305.5263" cy="-18" rx="42.7926" ry="18"/>
<text text-anchor="middle" x="305.5263" y="-14.3" font-family="Times,serif" font-size="14.00" fill="#000000">$|8&#45;9|6</text>
</g>
<!-- i|4&#45;5|&#45;5&#45;&gt;$|8&#45;9|6 -->
<g id="edge13" class="edge">
<title>i|4&#45;5|&#45;5&#45;&gt;$|8&#45;9|6</title>
<path fill="none" stroke="#000000" d="M260.5085,-72.937C267.7497,-64.1003 276.7348,-53.1354 284.7688,-43.3311"/>
<polygon fill="#000000" stroke="#000000" points="287.6035,-45.3939 291.2346,-35.4407 282.1892,-40.9571 287.6035,-45.3939"/>
</g>
<!-- si|3&#45;5|&#45;4&#45;&gt;i|4&#45;5|&#45;5 -->
<g id="edge15" class="edge">
<title>si|3&#45;5|&#45;4&#45;&gt;i|4&#45;5|&#45;5</title>
<path fill="none" stroke="#ff0000" d="M327.4453,-146.0209C312.7017,-135.8137 293.4102,-122.4581 277.3616,-111.3476"/>
<polygon fill="#ff0000" stroke="#ff0000" points="279.0431,-108.2547 268.8289,-105.4403 275.0586,-114.0101 279.0431,-108.2547"/>
</g>
<!-- ssi$|5&#45;9|2 -->
<g id="node12" class="node">
<title>ssi$|5&#45;9|2</title>
<ellipse fill="none" stroke="#000000" cx="467.5263" cy="-90" rx="55.7903" ry="18"/>
<text text-anchor="middle" x="467.5263" y="-86.3" font-family="Times,serif" font-size="14.00" fill="#000000">ssi$|5&#45;9|2</text>
</g>
<!-- si|3&#45;5|&#45;4&#45;&gt;ssi$|5&#45;9|2 -->
<g id="edge16" class="edge">
<title>si|3&#45;5|&#45;4&#45;&gt;ssi$|5&#45;9|2</title>
<path fill="none" stroke="#000000" d="M375.6257,-146.5542C392.2442,-136.3274 414.2708,-122.7726 432.5936,-111.497"/>
<polygon fill="#000000" stroke="#000000" points="434.5687,-114.3912 441.251,-106.1694 430.9,-108.4296 434.5687,-114.3912"/>
</g>
<!-- $|8&#45;9|5 -->
<g id="node13" class="node">
<title>$|8&#45;9|5</title>
<ellipse fill="none" stroke="#000000" cx="350.5263" cy="-90" rx="42.7926" ry="18"/>
<text text-anchor="middle" x="350.5263" y="-86.3" font-family="Times,serif" font-size="14.00" fill="#000000">$|8&#45;9|5</text>
</g>
<!-- si|3&#45;5|&#45;4&#45;&gt;$|8&#45;9|5 -->
<g id="edge17" class="edge">
<title>si|3&#45;5|&#45;4&#45;&gt;$|8&#45;9|5</title>
<path fill="none" stroke="#000000" d="M350.5263,-143.8314C350.5263,-136.131 350.5263,-126.9743 350.5263,-118.4166"/>
<polygon fill="#000000" stroke="#000000" points="354.0264,-118.4132 350.5263,-108.4133 347.0264,-118.4133 354.0264,-118.4132"/>
</g>
</g>
</svg>
