<?xml version="1.0" encoding="UTF-8" standalone="no"?>
<!DOCTYPE svg PUBLIC "-//W3C//DTD SVG 1.1//EN"
 "http://www.w3.org/Graphics/SVG/1.1/DTD/svg11.dtd">
<!-- Generated by graphviz version 2.40.1 (20161225.0304)
 -->
<!-- Title: %3 Pages: 1 -->
<svg width="494pt" height="764pt"
 viewBox="0.00 0.00 494.00 764.00" xmlns="http://www.w3.org/2000/svg" xmlns:xlink="http://www.w3.org/1999/xlink">
<g id="graph0" class="graph" transform="scale(1 1) rotate(0) translate(4 760)">
<title>%3</title>
<polygon fill="#ffffff" stroke="transparent" points="-4,4 -4,-760 490,-760 490,4 -4,4"/>
<!-- 0 -->
<g id="node1" class="node">
<title>0</title>
<ellipse fill="none" stroke="#000000" cx="315" cy="-738" rx="29.795" ry="18"/>
<text text-anchor="middle" x="315" y="-734.3" font-family="Times,serif" font-size="14.00" fill="#000000">root</text>
</g>
<!-- 1 -->
<g id="node2" class="node">
<title>1</title>
<ellipse fill="none" stroke="#000000" cx="171" cy="-666" rx="27" ry="18"/>
<text text-anchor="middle" x="171" y="-662.3" font-family="Times,serif" font-size="14.00" fill="#000000">i</text>
</g>
<!-- 0&#45;&gt;1 -->
<g id="edge1" class="edge">
<title>0&#45;&gt;1</title>
<path fill="none" stroke="#000000" d="M291.8639,-726.432C267.3994,-714.1997 228.6838,-694.8419 201.6843,-681.3421"/>
<polygon fill="#000000" stroke="#000000" points="203.1749,-678.1744 192.6654,-676.8327 200.0444,-684.4354 203.1749,-678.1744"/>
</g>
<!-- 14 -->
<g id="node15" class="node">
<title>14</title>
<ellipse fill="none" stroke="#000000" cx="279" cy="-666" rx="27" ry="18"/>
<text text-anchor="middle" x="279" y="-662.3" font-family="Times,serif" font-size="14.00" fill="#000000">s</text>
</g>
<!-- 0&#45;&gt;14 -->
<g id="edge14" class="edge">
<title>0&#45;&gt;14</title>
<path fill="none" stroke="#000000" d="M306.2854,-720.5708C302.0403,-712.0807 296.8464,-701.6929 292.1337,-692.2674"/>
<polygon fill="#000000" stroke="#000000" points="295.237,-690.6477 287.6343,-683.2687 288.976,-693.7782 295.237,-690.6477"/>
</g>
<!-- 33 -->
<g id="node34" class="node">
<title>33</title>
<ellipse fill="none" stroke="#000000" cx="351" cy="-666" rx="27" ry="18"/>
<text text-anchor="middle" x="351" y="-662.3" font-family="Times,serif" font-size="14.00" fill="#000000">m</text>
</g>
<!-- 0&#45;&gt;33 -->
<g id="edge33" class="edge">
<title>0&#45;&gt;33</title>
<path fill="none" stroke="#000000" d="M323.7146,-720.5708C327.9597,-712.0807 333.1536,-701.6929 337.8663,-692.2674"/>
<polygon fill="#000000" stroke="#000000" points="341.024,-693.7782 342.3657,-683.2687 334.763,-690.6477 341.024,-693.7782"/>
</g>
<!-- 43 -->
<g id="node44" class="node">
<title>43</title>
<ellipse fill="none" stroke="#000000" cx="423" cy="-666" rx="27" ry="18"/>
<text text-anchor="middle" x="423" y="-662.3" font-family="Times,serif" font-size="14.00" fill="#000000">$</text>
</g>
<!-- 0&#45;&gt;43 -->
<g id="edge43" class="edge">
<title>0&#45;&gt;43</title>
<path fill="none" stroke="#000000" d="M335.0609,-724.6261C352.0179,-713.3214 376.4836,-697.0109 395.3064,-684.4624"/>
<polygon fill="#000000" stroke="#000000" points="397.3934,-687.2776 403.7725,-678.8183 393.5105,-681.4532 397.3934,-687.2776"/>
</g>
<!-- 2 -->
<g id="node3" class="node">
<title>2</title>
<ellipse fill="none" stroke="#000000" cx="99" cy="-594" rx="27" ry="18"/>
<text text-anchor="middle" x="99" y="-590.3" font-family="Times,serif" font-size="14.00" fill="#000000">s</text>
</g>
<!-- 1&#45;&gt;2 -->
<g id="edge2" class="edge">
<title>1&#45;&gt;2</title>
<path fill="none" stroke="#000000" d="M155.7307,-650.7307C145.803,-640.803 132.6847,-627.6847 121.5637,-616.5637"/>
<polygon fill="#000000" stroke="#000000" points="123.7933,-613.8436 114.2473,-609.2473 118.8436,-618.7933 123.7933,-613.8436"/>
</g>
<!-- 13 -->
<g id="node14" class="node">
<title>13</title>
<ellipse fill="none" stroke="#000000" cx="171" cy="-594" rx="27" ry="18"/>
<text text-anchor="middle" x="171" y="-590.3" font-family="Times,serif" font-size="14.00" fill="#000000">$</text>
</g>
<!-- 1&#45;&gt;13 -->
<g id="edge13" class="edge">
<title>1&#45;&gt;13</title>
<path fill="none" stroke="#000000" d="M171,-647.8314C171,-640.131 171,-630.9743 171,-622.4166"/>
<polygon fill="#000000" stroke="#000000" points="174.5001,-622.4132 171,-612.4133 167.5001,-622.4133 174.5001,-622.4132"/>
</g>
<!-- 3 -->
<g id="node4" class="node">
<title>3</title>
<ellipse fill="none" stroke="#000000" cx="99" cy="-522" rx="27" ry="18"/>
<text text-anchor="middle" x="99" y="-518.3" font-family="Times,serif" font-size="14.00" fill="#000000">s</text>
</g>
<!-- 2&#45;&gt;3 -->
<g id="edge3" class="edge">
<title>2&#45;&gt;3</title>
<path fill="none" stroke="#000000" d="M99,-575.8314C99,-568.131 99,-558.9743 99,-550.4166"/>
<polygon fill="#000000" stroke="#000000" points="102.5001,-550.4132 99,-540.4133 95.5001,-550.4133 102.5001,-550.4132"/>
</g>
<!-- 4 -->
<g id="node5" class="node">
<title>4</title>
<ellipse fill="none" stroke="#000000" cx="27" cy="-450" rx="27" ry="18"/>
<text text-anchor="middle" x="27" y="-446.3" font-family="Times,serif" font-size="14.00" fill="#000000">i</text>
</g>
<!-- 3&#45;&gt;4 -->
<g id="edge4" class="edge">
<title>3&#45;&gt;4</title>
<path fill="none" stroke="#000000" d="M83.7307,-506.7307C73.803,-496.803 60.6847,-483.6847 49.5637,-472.5637"/>
<polygon fill="#000000" stroke="#000000" points="51.7933,-469.8436 42.2473,-465.2473 46.8436,-474.7933 51.7933,-469.8436"/>
</g>
<!-- 10 -->
<g id="node11" class="node">
<title>10</title>
<ellipse fill="none" stroke="#000000" cx="99" cy="-450" rx="27" ry="18"/>
<text text-anchor="middle" x="99" y="-446.3" font-family="Times,serif" font-size="14.00" fill="#000000">s</text>
</g>
<!-- 3&#45;&gt;10 -->
<g id="edge10" class="edge">
<title>3&#45;&gt;10</title>
<path fill="none" stroke="#000000" d="M99,-503.8314C99,-496.131 99,-486.9743 99,-478.4166"/>
<polygon fill="#000000" stroke="#000000" points="102.5001,-478.4132 99,-468.4133 95.5001,-478.4133 102.5001,-478.4132"/>
</g>
<!-- 5 -->
<g id="node6" class="node">
<title>5</title>
<ellipse fill="none" stroke="#000000" cx="27" cy="-378" rx="27" ry="18"/>
<text text-anchor="middle" x="27" y="-374.3" font-family="Times,serif" font-size="14.00" fill="#000000">s</text>
</g>
<!-- 4&#45;&gt;5 -->
<g id="edge5" class="edge">
<title>4&#45;&gt;5</title>
<path fill="none" stroke="#000000" d="M27,-431.8314C27,-424.131 27,-414.9743 27,-406.4166"/>
<polygon fill="#000000" stroke="#000000" points="30.5001,-406.4132 27,-396.4133 23.5001,-406.4133 30.5001,-406.4132"/>
</g>
<!-- 6 -->
<g id="node7" class="node">
<title>6</title>
<ellipse fill="none" stroke="#000000" cx="27" cy="-306" rx="27" ry="18"/>
<text text-anchor="middle" x="27" y="-302.3" font-family="Times,serif" font-size="14.00" fill="#000000">s</text>
</g>
<!-- 5&#45;&gt;6 -->
<g id="edge6" class="edge">
<title>5&#45;&gt;6</title>
<path fill="none" stroke="#000000" d="M27,-359.8314C27,-352.131 27,-342.9743 27,-334.4166"/>
<polygon fill="#000000" stroke="#000000" points="30.5001,-334.4132 27,-324.4133 23.5001,-334.4133 30.5001,-334.4132"/>
</g>
<!-- 7 -->
<g id="node8" class="node">
<title>7</title>
<ellipse fill="none" stroke="#000000" cx="27" cy="-234" rx="27" ry="18"/>
<text text-anchor="middle" x="27" y="-230.3" font-family="Times,serif" font-size="14.00" fill="#000000">s</text>
</g>
<!-- 6&#45;&gt;7 -->
<g id="edge7" class="edge">
<title>6&#45;&gt;7</title>
<path fill="none" stroke="#000000" d="M27,-287.8314C27,-280.131 27,-270.9743 27,-262.4166"/>
<polygon fill="#000000" stroke="#000000" points="30.5001,-262.4132 27,-252.4133 23.5001,-262.4133 30.5001,-262.4132"/>
</g>
<!-- 8 -->
<g id="node9" class="node">
<title>8</title>
<ellipse fill="none" stroke="#000000" cx="27" cy="-162" rx="27" ry="18"/>
<text text-anchor="middle" x="27" y="-158.3" font-family="Times,serif" font-size="14.00" fill="#000000">i</text>
</g>
<!-- 7&#45;&gt;8 -->
<g id="edge8" class="edge">
<title>7&#45;&gt;8</title>
<path fill="none" stroke="#000000" d="M27,-215.8314C27,-208.131 27,-198.9743 27,-190.4166"/>
<polygon fill="#000000" stroke="#000000" points="30.5001,-190.4132 27,-180.4133 23.5001,-190.4133 30.5001,-190.4132"/>
</g>
<!-- 9 -->
<g id="node10" class="node">
<title>9</title>
<ellipse fill="none" stroke="#000000" cx="27" cy="-90" rx="27" ry="18"/>
<text text-anchor="middle" x="27" y="-86.3" font-family="Times,serif" font-size="14.00" fill="#000000">$</text>
</g>
<!-- 8&#45;&gt;9 -->
<g id="edge9" class="edge">
<title>8&#45;&gt;9</title>
<path fill="none" stroke="#000000" d="M27,-143.8314C27,-136.131 27,-126.9743 27,-118.4166"/>
<polygon fill="#000000" stroke="#000000" points="30.5001,-118.4132 27,-108.4133 23.5001,-118.4133 30.5001,-118.4132"/>
</g>
<!-- 11 -->
<g id="node12" class="node">
<title>11</title>
<ellipse fill="none" stroke="#000000" cx="99" cy="-378" rx="27" ry="18"/>
<text text-anchor="middle" x="99" y="-374.3" font-family="Times,serif" font-size="14.00" fill="#000000">i</text>
</g>
<!-- 10&#45;&gt;11 -->
<g id="edge11" class="edge">
<title>10&#45;&gt;11</title>
<path fill="none" stroke="#000000" d="M99,-431.8314C99,-424.131 99,-414.9743 99,-406.4166"/>
<polygon fill="#000000" stroke="#000000" points="102.5001,-406.4132 99,-396.4133 95.5001,-406.4133 102.5001,-406.4132"/>
</g>
<!-- 12 -->
<g id="node13" class="node">
<title>12</title>
<ellipse fill="none" stroke="#000000" cx="99" cy="-306" rx="27" ry="18"/>
<text text-anchor="middle" x="99" y="-302.3" font-family="Times,serif" font-size="14.00" fill="#000000">$</text>
</g>
<!-- 11&#45;&gt;12 -->
<g id="edge12" class="edge">
<title>11&#45;&gt;12</title>
<path fill="none" stroke="#000000" d="M99,-359.8314C99,-352.131 99,-342.9743 99,-334.4166"/>
<polygon fill="#000000" stroke="#000000" points="102.5001,-334.4132 99,-324.4133 95.5001,-334.4133 102.5001,-334.4132"/>
</g>
<!-- 15 -->
<g id="node16" class="node">
<title>15</title>
<ellipse fill="none" stroke="#000000" cx="243" cy="-594" rx="27" ry="18"/>
<text text-anchor="middle" x="243" y="-590.3" font-family="Times,serif" font-size="14.00" fill="#000000">i</text>
</g>
<!-- 14&#45;&gt;15 -->
<g id="edge15" class="edge">
<title>14&#45;&gt;15</title>
<path fill="none" stroke="#000000" d="M270.2854,-648.5708C266.0403,-640.0807 260.8464,-629.6929 256.1337,-620.2674"/>
<polygon fill="#000000" stroke="#000000" points="259.237,-618.6477 251.6343,-611.2687 252.976,-621.7782 259.237,-618.6477"/>
</g>
<!-- 22 -->
<g id="node23" class="node">
<title>22</title>
<ellipse fill="none" stroke="#000000" cx="315" cy="-594" rx="27" ry="18"/>
<text text-anchor="middle" x="315" y="-590.3" font-family="Times,serif" font-size="14.00" fill="#000000">s</text>
</g>
<!-- 14&#45;&gt;22 -->
<g id="edge22" class="edge">
<title>14&#45;&gt;22</title>
<path fill="none" stroke="#000000" d="M287.7146,-648.5708C291.9597,-640.0807 297.1536,-629.6929 301.8663,-620.2674"/>
<polygon fill="#000000" stroke="#000000" points="305.024,-621.7782 306.3657,-611.2687 298.763,-618.6477 305.024,-621.7782"/>
</g>
<!-- 16 -->
<g id="node17" class="node">
<title>16</title>
<ellipse fill="none" stroke="#000000" cx="171" cy="-522" rx="27" ry="18"/>
<text text-anchor="middle" x="171" y="-518.3" font-family="Times,serif" font-size="14.00" fill="#000000">s</text>
</g>
<!-- 15&#45;&gt;16 -->
<g id="edge16" class="edge">
<title>15&#45;&gt;16</title>
<path fill="none" stroke="#000000" d="M227.7307,-578.7307C217.803,-568.803 204.6847,-555.6847 193.5637,-544.5637"/>
<polygon fill="#000000" stroke="#000000" points="195.7933,-541.8436 186.2473,-537.2473 190.8436,-546.7933 195.7933,-541.8436"/>
</g>
<!-- 21 -->
<g id="node22" class="node">
<title>21</title>
<ellipse fill="none" stroke="#000000" cx="243" cy="-522" rx="27" ry="18"/>
<text text-anchor="middle" x="243" y="-518.3" font-family="Times,serif" font-size="14.00" fill="#000000">$</text>
</g>
<!-- 15&#45;&gt;21 -->
<g id="edge21" class="edge">
<title>15&#45;&gt;21</title>
<path fill="none" stroke="#000000" d="M243,-575.8314C243,-568.131 243,-558.9743 243,-550.4166"/>
<polygon fill="#000000" stroke="#000000" points="246.5001,-550.4132 243,-540.4133 239.5001,-550.4133 246.5001,-550.4132"/>
</g>
<!-- 17 -->
<g id="node18" class="node">
<title>17</title>
<ellipse fill="none" stroke="#000000" cx="171" cy="-450" rx="27" ry="18"/>
<text text-anchor="middle" x="171" y="-446.3" font-family="Times,serif" font-size="14.00" fill="#000000">s</text>
</g>
<!-- 16&#45;&gt;17 -->
<g id="edge17" class="edge">
<title>16&#45;&gt;17</title>
<path fill="none" stroke="#000000" d="M171,-503.8314C171,-496.131 171,-486.9743 171,-478.4166"/>
<polygon fill="#000000" stroke="#000000" points="174.5001,-478.4132 171,-468.4133 167.5001,-478.4133 174.5001,-478.4132"/>
</g>
<!-- 18 -->
<g id="node19" class="node">
<title>18</title>
<ellipse fill="none" stroke="#000000" cx="171" cy="-378" rx="27" ry="18"/>
<text text-anchor="middle" x="171" y="-374.3" font-family="Times,serif" font-size="14.00" fill="#000000">s</text>
</g>
<!-- 17&#45;&gt;18 -->
<g id="edge18" class="edge">
<title>17&#45;&gt;18</title>
<path fill="none" stroke="#000000" d="M171,-431.8314C171,-424.131 171,-414.9743 171,-406.4166"/>
<polygon fill="#000000" stroke="#000000" points="174.5001,-406.4132 171,-396.4133 167.5001,-406.4133 174.5001,-406.4132"/>
</g>
<!-- 19 -->
<g id="node20" class="node">
<title>19</title>
<ellipse fill="none" stroke="#000000" cx="171" cy="-306" rx="27" ry="18"/>
<text text-anchor="middle" x="171" y="-302.3" font-family="Times,serif" font-size="14.00" fill="#000000">i</text>
</g>
<!-- 18&#45;&gt;19 -->
<g id="edge19" class="edge">
<title>18&#45;&gt;19</title>
<path fill="none" stroke="#000000" d="M171,-359.8314C171,-352.131 171,-342.9743 171,-334.4166"/>
<polygon fill="#000000" stroke="#000000" points="174.5001,-334.4132 171,-324.4133 167.5001,-334.4133 174.5001,-334.4132"/>
</g>
<!-- 20 -->
<g id="node21" class="node">
<title>20</title>
<ellipse fill="none" stroke="#000000" cx="171" cy="-234" rx="27" ry="18"/>
<text text-anchor="middle" x="171" y="-230.3" font-family="Times,serif" font-size="14.00" fill="#000000">$</text>
</g>
<!-- 19&#45;&gt;20 -->
<g id="edge20" class="edge">
<title>19&#45;&gt;20</title>
<path fill="none" stroke="#000000" d="M171,-287.8314C171,-280.131 171,-270.9743 171,-262.4166"/>
<polygon fill="#000000" stroke="#000000" points="174.5001,-262.4132 171,-252.4133 167.5001,-262.4133 174.5001,-262.4132"/>
</g>
<!-- 23 -->
<g id="node24" class="node">
<title>23</title>
<ellipse fill="none" stroke="#000000" cx="315" cy="-522" rx="27" ry="18"/>
<text text-anchor="middle" x="315" y="-518.3" font-family="Times,serif" font-size="14.00" fill="#000000">i</text>
</g>
<!-- 22&#45;&gt;23 -->
<g id="edge23" class="edge">
<title>22&#45;&gt;23</title>
<path fill="none" stroke="#000000" d="M315,-575.8314C315,-568.131 315,-558.9743 315,-550.4166"/>
<polygon fill="#000000" stroke="#000000" points="318.5001,-550.4132 315,-540.4133 311.5001,-550.4133 318.5001,-550.4132"/>
</g>
<!-- 30 -->
<g id="node31" class="node">
<title>30</title>
<ellipse fill="none" stroke="#000000" cx="387" cy="-522" rx="27" ry="18"/>
<text text-anchor="middle" x="387" y="-518.3" font-family="Times,serif" font-size="14.00" fill="#000000">s</text>
</g>
<!-- 22&#45;&gt;30 -->
<g id="edge30" class="edge">
<title>22&#45;&gt;30</title>
<path fill="none" stroke="#000000" d="M330.2693,-578.7307C340.197,-568.803 353.3153,-555.6847 364.4363,-544.5637"/>
<polygon fill="#000000" stroke="#000000" points="367.1564,-546.7933 371.7527,-537.2473 362.2067,-541.8436 367.1564,-546.7933"/>
</g>
<!-- 24 -->
<g id="node25" class="node">
<title>24</title>
<ellipse fill="none" stroke="#000000" cx="243" cy="-450" rx="27" ry="18"/>
<text text-anchor="middle" x="243" y="-446.3" font-family="Times,serif" font-size="14.00" fill="#000000">s</text>
</g>
<!-- 23&#45;&gt;24 -->
<g id="edge24" class="edge">
<title>23&#45;&gt;24</title>
<path fill="none" stroke="#000000" d="M299.7307,-506.7307C289.803,-496.803 276.6847,-483.6847 265.5637,-472.5637"/>
<polygon fill="#000000" stroke="#000000" points="267.7933,-469.8436 258.2473,-465.2473 262.8436,-474.7933 267.7933,-469.8436"/>
</g>
<!-- 29 -->
<g id="node30" class="node">
<title>29</title>
<ellipse fill="none" stroke="#000000" cx="315" cy="-450" rx="27" ry="18"/>
<text text-anchor="middle" x="315" y="-446.3" font-family="Times,serif" font-size="14.00" fill="#000000">$</text>
</g>
<!-- 23&#45;&gt;29 -->
<g id="edge29" class="edge">
<title>23&#45;&gt;29</title>
<path fill="none" stroke="#000000" d="M315,-503.8314C315,-496.131 315,-486.9743 315,-478.4166"/>
<polygon fill="#000000" stroke="#000000" points="318.5001,-478.4132 315,-468.4133 311.5001,-478.4133 318.5001,-478.4132"/>
</g>
<!-- 25 -->
<g id="node26" class="node">
<title>25</title>
<ellipse fill="none" stroke="#000000" cx="243" cy="-378" rx="27" ry="18"/>
<text text-anchor="middle" x="243" y="-374.3" font-family="Times,serif" font-size="14.00" fill="#000000">s</text>
</g>
<!-- 24&#45;&gt;25 -->
<g id="edge25" class="edge">
<title>24&#45;&gt;25</title>
<path fill="none" stroke="#000000" d="M243,-431.8314C243,-424.131 243,-414.9743 243,-406.4166"/>
<polygon fill="#000000" stroke="#000000" points="246.5001,-406.4132 243,-396.4133 239.5001,-406.4133 246.5001,-406.4132"/>
</g>
<!-- 26 -->
<g id="node27" class="node">
<title>26</title>
<ellipse fill="none" stroke="#000000" cx="243" cy="-306" rx="27" ry="18"/>
<text text-anchor="middle" x="243" y="-302.3" font-family="Times,serif" font-size="14.00" fill="#000000">s</text>
</g>
<!-- 25&#45;&gt;26 -->
<g id="edge26" class="edge">
<title>25&#45;&gt;26</title>
<path fill="none" stroke="#000000" d="M243,-359.8314C243,-352.131 243,-342.9743 243,-334.4166"/>
<polygon fill="#000000" stroke="#000000" points="246.5001,-334.4132 243,-324.4133 239.5001,-334.4133 246.5001,-334.4132"/>
</g>
<!-- 27 -->
<g id="node28" class="node">
<title>27</title>
<ellipse fill="none" stroke="#000000" cx="243" cy="-234" rx="27" ry="18"/>
<text text-anchor="middle" x="243" y="-230.3" font-family="Times,serif" font-size="14.00" fill="#000000">i</text>
</g>
<!-- 26&#45;&gt;27 -->
<g id="edge27" class="edge">
<title>26&#45;&gt;27</title>
<path fill="none" stroke="#000000" d="M243,-287.8314C243,-280.131 243,-270.9743 243,-262.4166"/>
<polygon fill="#000000" stroke="#000000" points="246.5001,-262.4132 243,-252.4133 239.5001,-262.4133 246.5001,-262.4132"/>
</g>
<!-- 28 -->
<g id="node29" class="node">
<title>28</title>
<ellipse fill="none" stroke="#000000" cx="243" cy="-162" rx="27" ry="18"/>
<text text-anchor="middle" x="243" y="-158.3" font-family="Times,serif" font-size="14.00" fill="#000000">$</text>
</g>
<!-- 27&#45;&gt;28 -->
<g id="edge28" class="edge">
<title>27&#45;&gt;28</title>
<path fill="none" stroke="#000000" d="M243,-215.8314C243,-208.131 243,-198.9743 243,-190.4166"/>
<polygon fill="#000000" stroke="#000000" points="246.5001,-190.4132 243,-180.4133 239.5001,-190.4133 246.5001,-190.4132"/>
</g>
<!-- 31 -->
<g id="node32" class="node">
<title>31</title>
<ellipse fill="none" stroke="#000000" cx="387" cy="-450" rx="27" ry="18"/>
<text text-anchor="middle" x="387" y="-446.3" font-family="Times,serif" font-size="14.00" fill="#000000">i</text>
</g>
<!-- 30&#45;&gt;31 -->
<g id="edge31" class="edge">
<title>30&#45;&gt;31</title>
<path fill="none" stroke="#000000" d="M387,-503.8314C387,-496.131 387,-486.9743 387,-478.4166"/>
<polygon fill="#000000" stroke="#000000" points="390.5001,-478.4132 387,-468.4133 383.5001,-478.4133 390.5001,-478.4132"/>
</g>
<!-- 32 -->
<g id="node33" class="node">
<title>32</title>
<ellipse fill="none" stroke="#000000" cx="387" cy="-378" rx="27" ry="18"/>
<text text-anchor="middle" x="387" y="-374.3" font-family="Times,serif" font-size="14.00" fill="#000000">$</text>
</g>
<!-- 31&#45;&gt;32 -->
<g id="edge32" class="edge">
<title>31&#45;&gt;32</title>
<path fill="none" stroke="#000000" d="M387,-431.8314C387,-424.131 387,-414.9743 387,-406.4166"/>
<polygon fill="#000000" stroke="#000000" points="390.5001,-406.4132 387,-396.4133 383.5001,-406.4133 390.5001,-406.4132"/>
</g>
<!-- 34 -->
<g id="node35" class="node">
<title>34</title>
<ellipse fill="none" stroke="#000000" cx="423" cy="-594" rx="27" ry="18"/>
<text text-anchor="middle" x="423" y="-590.3" font-family="Times,serif" font-size="14.00" fill="#000000">i</text>
</g>
<!-- 33&#45;&gt;34 -->
<g id="edge34" class="edge">
<title>33&#45;&gt;34</title>
<path fill="none" stroke="#000000" d="M366.2693,-650.7307C376.197,-640.803 389.3153,-627.6847 400.4363,-616.5637"/>
<polygon fill="#000000" stroke="#000000" points="403.1564,-618.7933 407.7527,-609.2473 398.2067,-613.8436 403.1564,-618.7933"/>
</g>
<!-- 35 -->
<g id="node36" class="node">
<title>35</title>
<ellipse fill="none" stroke="#000000" cx="459" cy="-522" rx="27" ry="18"/>
<text text-anchor="middle" x="459" y="-518.3" font-family="Times,serif" font-size="14.00" fill="#000000">s</text>
</g>
<!-- 34&#45;&gt;35 -->
<g id="edge35" class="edge">
<title>34&#45;&gt;35</title>
<path fill="none" stroke="#000000" d="M431.7146,-576.5708C435.9597,-568.0807 441.1536,-557.6929 445.8663,-548.2674"/>
<polygon fill="#000000" stroke="#000000" points="449.024,-549.7782 450.3657,-539.2687 442.763,-546.6477 449.024,-549.7782"/>
</g>
<!-- 36 -->
<g id="node37" class="node">
<title>36</title>
<ellipse fill="none" stroke="#000000" cx="459" cy="-450" rx="27" ry="18"/>
<text text-anchor="middle" x="459" y="-446.3" font-family="Times,serif" font-size="14.00" fill="#000000">s</text>
</g>
<!-- 35&#45;&gt;36 -->
<g id="edge36" class="edge">
<title>35&#45;&gt;36</title>
<path fill="none" stroke="#000000" d="M459,-503.8314C459,-496.131 459,-486.9743 459,-478.4166"/>
<polygon fill="#000000" stroke="#000000" points="462.5001,-478.4132 459,-468.4133 455.5001,-478.4133 462.5001,-478.4132"/>
</g>
<!-- 37 -->
<g id="node38" class="node">
<title>37</title>
<ellipse fill="none" stroke="#000000" cx="459" cy="-378" rx="27" ry="18"/>
<text text-anchor="middle" x="459" y="-374.3" font-family="Times,serif" font-size="14.00" fill="#000000">i</text>
</g>
<!-- 36&#45;&gt;37 -->
<g id="edge37" class="edge">
<title>36&#45;&gt;37</title>
<path fill="none" stroke="#000000" d="M459,-431.8314C459,-424.131 459,-414.9743 459,-406.4166"/>
<polygon fill="#000000" stroke="#000000" points="462.5001,-406.4132 459,-396.4133 455.5001,-406.4133 462.5001,-406.4132"/>
</g>
<!-- 38 -->
<g id="node39" class="node">
<title>38</title>
<ellipse fill="none" stroke="#000000" cx="459" cy="-306" rx="27" ry="18"/>
<text text-anchor="middle" x="459" y="-302.3" font-family="Times,serif" font-size="14.00" fill="#000000">s</text>
</g>
<!-- 37&#45;&gt;38 -->
<g id="edge38" class="edge">
<title>37&#45;&gt;38</title>
<path fill="none" stroke="#000000" d="M459,-359.8314C459,-352.131 459,-342.9743 459,-334.4166"/>
<polygon fill="#000000" stroke="#000000" points="462.5001,-334.4132 459,-324.4133 455.5001,-334.4133 462.5001,-334.4132"/>
</g>
<!-- 39 -->
<g id="node40" class="node">
<title>39</title>
<ellipse fill="none" stroke="#000000" cx="459" cy="-234" rx="27" ry="18"/>
<text text-anchor="middle" x="459" y="-230.3" font-family="Times,serif" font-size="14.00" fill="#000000">s</text>
</g>
<!-- 38&#45;&gt;39 -->
<g id="edge39" class="edge">
<title>38&#45;&gt;39</title>
<path fill="none" stroke="#000000" d="M459,-287.8314C459,-280.131 459,-270.9743 459,-262.4166"/>
<polygon fill="#000000" stroke="#000000" points="462.5001,-262.4132 459,-252.4133 455.5001,-262.4133 462.5001,-262.4132"/>
</g>
<!-- 40 -->
<g id="node41" class="node">
<title>40</title>
<ellipse fill="none" stroke="#000000" cx="459" cy="-162" rx="27" ry="18"/>
<text text-anchor="middle" x="459" y="-158.3" font-family="Times,serif" font-size="14.00" fill="#000000">s</text>
</g>
<!-- 39&#45;&gt;40 -->
<g id="edge40" class="edge">
<title>39&#45;&gt;40</title>
<path fill="none" stroke="#000000" d="M459,-215.8314C459,-208.131 459,-198.9743 459,-190.4166"/>
<polygon fill="#000000" stroke="#000000" points="462.5001,-190.4132 459,-180.4133 455.5001,-190.4133 462.5001,-190.4132"/>
</g>
<!-- 41 -->
<g id="node42" class="node">
<title>41</title>
<ellipse fill="none" stroke="#000000" cx="459" cy="-90" rx="27" ry="18"/>
<text text-anchor="middle" x="459" y="-86.3" font-family="Times,serif" font-size="14.00" fill="#000000">i</text>
</g>
<!-- 40&#45;&gt;41 -->
<g id="edge41" class="edge">
<title>40&#45;&gt;41</title>
<path fill="none" stroke="#000000" d="M459,-143.8314C459,-136.131 459,-126.9743 459,-118.4166"/>
<polygon fill="#000000" stroke="#000000" points="462.5001,-118.4132 459,-108.4133 455.5001,-118.4133 462.5001,-118.4132"/>
</g>
<!-- 42 -->
<g id="node43" class="node">
<title>42</title>
<ellipse fill="none" stroke="#000000" cx="459" cy="-18" rx="27" ry="18"/>
<text text-anchor="middle" x="459" y="-14.3" font-family="Times,serif" font-size="14.00" fill="#000000">$</text>
</g>
<!-- 41&#45;&gt;42 -->
<g id="edge42" class="edge">
<title>41&#45;&gt;42</title>
<path fill="none" stroke="#000000" d="M459,-71.8314C459,-64.131 459,-54.9743 459,-46.4166"/>
<polygon fill="#000000" stroke="#000000" points="462.5001,-46.4132 459,-36.4133 455.5001,-46.4133 462.5001,-46.4132"/>
</g>
</g>
</svg>
