<?xml version="1.0" encoding="UTF-8" standalone="no"?>
<!DOCTYPE svg PUBLIC "-//W3C//DTD SVG 1.1//EN"
 "http://www.w3.org/Graphics/SVG/1.1/DTD/svg11.dtd">
<!-- Generated by graphviz version 2.40.1 (20161225.0304)
 -->
<!-- Title: %3 Pages: 1 -->
<svg width="326pt" height="116pt"
 viewBox="0.00 0.00 325.79 116.00" xmlns="http://www.w3.org/2000/svg" xmlns:xlink="http://www.w3.org/1999/xlink">
<g id="graph0" class="graph" transform="scale(1 1) rotate(0) translate(4 112)">
<title>%3</title>
<polygon fill="#ffffff" stroke="transparent" points="-4,4 -4,-112 321.7912,-112 321.7912,4 -4,4"/>
<!-- root -->
<g id="node1" class="node">
<title>root</title>
<ellipse fill="none" stroke="#000000" cx="149.846" cy="-90" rx="29.795" ry="18"/>
<text text-anchor="middle" x="149.846" y="-86.3" font-family="Times,serif" font-size="14.00" fill="#000000">root</text>
</g>
<!-- is|1&#45;3|1 -->
<g id="node2" class="node">
<title>is|1&#45;3|1</title>
<ellipse fill="none" stroke="#000000" cx="44.846" cy="-18" rx="44.6926" ry="18"/>
<text text-anchor="middle" x="44.846" y="-14.3" font-family="Times,serif" font-size="14.00" fill="#000000">is|1&#45;3|1</text>
</g>
<!-- root&#45;&gt;is|1&#45;3|1 -->
<g id="edge1" class="edge">
<title>root&#45;&gt;is|1&#45;3|1</title>
<path fill="none" stroke="#000000" d="M130.0963,-76.4574C114.8828,-66.0252 93.5602,-51.404 76.046,-39.3942"/>
<polygon fill="#000000" stroke="#000000" points="78.0241,-36.5069 67.7975,-33.7381 74.0654,-42.28 78.0241,-36.5069"/>
</g>
<!-- s|2&#45;3|2 -->
<g id="node3" class="node">
<title>s|2&#45;3|2</title>
<ellipse fill="none" stroke="#000000" cx="149.846" cy="-18" rx="42.4939" ry="18"/>
<text text-anchor="middle" x="149.846" y="-14.3" font-family="Times,serif" font-size="14.00" fill="#000000">s|2&#45;3|2</text>
</g>
<!-- root&#45;&gt;s|2&#45;3|2 -->
<g id="edge2" class="edge">
<title>root&#45;&gt;s|2&#45;3|2</title>
<path fill="none" stroke="#000000" d="M149.846,-71.8314C149.846,-64.131 149.846,-54.9743 149.846,-46.4166"/>
<polygon fill="#000000" stroke="#000000" points="153.3461,-46.4132 149.846,-36.4133 146.3461,-46.4133 153.3461,-46.4132"/>
</g>
<!-- mis|0&#45;3|0 -->
<g id="node4" class="node">
<title>mis|0&#45;3|0</title>
<ellipse fill="none" stroke="#000000" cx="263.846" cy="-18" rx="53.8905" ry="18"/>
<text text-anchor="middle" x="263.846" y="-14.3" font-family="Times,serif" font-size="14.00" fill="#000000">mis|0&#45;3|0</text>
</g>
<!-- root&#45;&gt;mis|0&#45;3|0 -->
<g id="edge3" class="edge">
<title>root&#45;&gt;mis|0&#45;3|0</title>
<path fill="none" stroke="#000000" d="M170.4906,-76.9613C187.0718,-66.489 210.6975,-51.5675 230.0324,-39.356"/>
<polygon fill="#000000" stroke="#000000" points="231.9874,-42.2609 238.5734,-33.9617 228.2495,-36.3424 231.9874,-42.2609"/>
</g>
</g>
</svg>
