<?xml version="1.0" encoding="UTF-8" standalone="no"?>
<!DOCTYPE svg PUBLIC "-//W3C//DTD SVG 1.1//EN"
 "http://www.w3.org/Graphics/SVG/1.1/DTD/svg11.dtd">
<!-- Generated by graphviz version 2.40.1 (20161225.0304)
 -->
<!-- Title: %3 Pages: 1 -->
<svg width="401pt" height="188pt"
 viewBox="0.00 0.00 400.89 188.00" xmlns="http://www.w3.org/2000/svg" xmlns:xlink="http://www.w3.org/1999/xlink">
<g id="graph0" class="graph" transform="scale(1 1) rotate(0) translate(4 184)">
<title>%3</title>
<polygon fill="#ffffff" stroke="transparent" points="-4,4 -4,-184 396.8881,-184 396.8881,4 -4,4"/>
<!-- root -->
<g id="node1" class="node">
<title>root</title>
<ellipse fill="none" stroke="#000000" cx="187.3945" cy="-162" rx="29.795" ry="18"/>
<text text-anchor="middle" x="187.3945" y="-158.3" font-family="Times,serif" font-size="14.00" fill="#000000">root</text>
</g>
<!-- ississ|1&#45;7|1 -->
<g id="node2" class="node">
<title>ississ|1&#45;7|1</title>
<ellipse fill="none" stroke="#000000" cx="62.3945" cy="-90" rx="62.2891" ry="18"/>
<text text-anchor="middle" x="62.3945" y="-86.3" font-family="Times,serif" font-size="14.00" fill="#000000">ississ|1&#45;7|1</text>
</g>
<!-- root&#45;&gt;ississ|1&#45;7|1 -->
<g id="edge1" class="edge">
<title>root&#45;&gt;ississ|1&#45;7|1</title>
<path fill="none" stroke="#000000" d="M165.6211,-149.4586C147.3822,-138.9529 120.9474,-123.7265 99.3952,-111.3124"/>
<polygon fill="#000000" stroke="#000000" points="100.9079,-108.1446 90.4956,-106.1862 97.414,-114.2104 100.9079,-108.1446"/>
</g>
<!-- s|2&#45;3|&#45;2 -->
<g id="node3" class="node">
<title>s|2&#45;3|&#45;2</title>
<ellipse fill="none" stroke="#000000" cx="187.3945" cy="-90" rx="44.6926" ry="18"/>
<text text-anchor="middle" x="187.3945" y="-86.3" font-family="Times,serif" font-size="14.00" fill="#000000">s|2&#45;3|&#45;2</text>
</g>
<!-- root&#45;&gt;s|2&#45;3|&#45;2 -->
<g id="edge2" class="edge">
<title>root&#45;&gt;s|2&#45;3|&#45;2</title>
<path fill="none" stroke="#000000" d="M181.4787,-144.2022C180.689,-136.3271 180.4599,-126.875 180.7916,-118.0852"/>
<polygon fill="#000000" stroke="#000000" points="184.3014,-118.0532 181.4743,-107.8425 177.3169,-117.5876 184.3014,-118.0532"/>
</g>
<!-- mississ|0&#45;7|0 -->
<g id="node6" class="node">
<title>mississ|0&#45;7|0</title>
<ellipse fill="none" stroke="#000000" cx="321.3945" cy="-90" rx="71.4873" ry="18"/>
<text text-anchor="middle" x="321.3945" y="-86.3" font-family="Times,serif" font-size="14.00" fill="#000000">mississ|0&#45;7|0</text>
</g>
<!-- root&#45;&gt;mississ|0&#45;7|0 -->
<g id="edge6" class="edge">
<title>root&#45;&gt;mississ|0&#45;7|0</title>
<path fill="none" stroke="#000000" d="M209.8231,-149.9488C229.4237,-139.4171 258.3383,-123.8809 281.8206,-111.2636"/>
<polygon fill="#000000" stroke="#000000" points="283.698,-114.2281 290.8503,-106.4118 280.3847,-108.0619 283.698,-114.2281"/>
</g>
<!-- s|2&#45;3|&#45;2&#45;&gt;root -->
<g id="edge3" class="edge">
<title>s|2&#45;3|&#45;2&#45;&gt;root</title>
<path fill="none" stroke="#ff0000" d="M193.3147,-107.8425C194.1023,-115.7236 194.3292,-125.1774 193.9954,-133.9647"/>
<polygon fill="#ff0000" stroke="#ff0000" points="190.4859,-133.9908 193.3102,-144.2022 197.4703,-134.4583 190.4859,-133.9908"/>
</g>
<!-- iss|4&#45;7|3 -->
<g id="node4" class="node">
<title>iss|4&#45;7|3</title>
<ellipse fill="none" stroke="#000000" cx="125.3945" cy="-18" rx="50.0912" ry="18"/>
<text text-anchor="middle" x="125.3945" y="-14.3" font-family="Times,serif" font-size="14.00" fill="#000000">iss|4&#45;7|3</text>
</g>
<!-- s|2&#45;3|&#45;2&#45;&gt;iss|4&#45;7|3 -->
<g id="edge4" class="edge">
<title>s|2&#45;3|&#45;2&#45;&gt;iss|4&#45;7|3</title>
<path fill="none" stroke="#000000" d="M172.7013,-72.937C165.0158,-64.0119 155.4609,-52.9159 146.9544,-43.0373"/>
<polygon fill="#000000" stroke="#000000" points="149.5903,-40.7345 140.4128,-35.4407 144.2859,-45.3022 149.5903,-40.7345"/>
</g>
<!-- siss|3&#45;7|2 -->
<g id="node5" class="node">
<title>siss|3&#45;7|2</title>
<ellipse fill="none" stroke="#000000" cx="248.3945" cy="-18" rx="54.6905" ry="18"/>
<text text-anchor="middle" x="248.3945" y="-14.3" font-family="Times,serif" font-size="14.00" fill="#000000">siss|3&#45;7|2</text>
</g>
<!-- s|2&#45;3|&#45;2&#45;&gt;siss|3&#45;7|2 -->
<g id="edge5" class="edge">
<title>s|2&#45;3|&#45;2&#45;&gt;siss|3&#45;7|2</title>
<path fill="none" stroke="#000000" d="M201.8506,-72.937C209.3373,-64.1003 218.627,-53.1354 226.9334,-43.3311"/>
<polygon fill="#000000" stroke="#000000" points="229.8246,-45.333 233.6183,-35.4407 224.4837,-40.8081 229.8246,-45.333"/>
</g>
</g>
</svg>
