<?xml version="1.0" encoding="UTF-8" standalone="no"?>
<!DOCTYPE svg PUBLIC "-//W3C//DTD SVG 1.1//EN"
 "http://www.w3.org/Graphics/SVG/1.1/DTD/svg11.dtd">
<!-- Generated by graphviz version 2.40.1 (20161225.0304)
 -->
<!-- Title: %3 Pages: 1 -->
<svg width="413pt" height="188pt"
 viewBox="0.00 0.00 412.74 188.00" xmlns="http://www.w3.org/2000/svg" xmlns:xlink="http://www.w3.org/1999/xlink">
<g id="graph0" class="graph" transform="scale(1 1) rotate(0) translate(4 184)">
<title>%3</title>
<polygon fill="#ffffff" stroke="transparent" points="-4,4 -4,-184 408.7376,-184 408.7376,4 -4,4"/>
<!-- root -->
<g id="node1" class="node">
<title>root</title>
<ellipse fill="none" stroke="#000000" cx="193.6442" cy="-162" rx="29.795" ry="18"/>
<text text-anchor="middle" x="193.6442" y="-158.3" font-family="Times,serif" font-size="14.00" fill="#000000">root</text>
</g>
<!-- ississi|1&#45;8|1 -->
<g id="node2" class="node">
<title>ississi|1&#45;8|1</title>
<ellipse fill="none" stroke="#000000" cx="65.6442" cy="-90" rx="65.7887" ry="18"/>
<text text-anchor="middle" x="65.6442" y="-86.3" font-family="Times,serif" font-size="14.00" fill="#000000">ississi|1&#45;8|1</text>
</g>
<!-- root&#45;&gt;ississi|1&#45;8|1 -->
<g id="edge1" class="edge">
<title>root&#45;&gt;ississi|1&#45;8|1</title>
<path fill="none" stroke="#000000" d="M171.6402,-149.6228C152.9189,-139.092 125.6139,-123.733 103.4063,-111.2412"/>
<polygon fill="#000000" stroke="#000000" points="104.9849,-108.1135 94.5532,-106.2613 101.553,-114.2145 104.9849,-108.1135"/>
</g>
<!-- s|2&#45;3|&#45;2 -->
<g id="node3" class="node">
<title>s|2&#45;3|&#45;2</title>
<ellipse fill="none" stroke="#000000" cx="193.6442" cy="-90" rx="44.6926" ry="18"/>
<text text-anchor="middle" x="193.6442" y="-86.3" font-family="Times,serif" font-size="14.00" fill="#000000">s|2&#45;3|&#45;2</text>
</g>
<!-- root&#45;&gt;s|2&#45;3|&#45;2 -->
<g id="edge2" class="edge">
<title>root&#45;&gt;s|2&#45;3|&#45;2</title>
<path fill="none" stroke="#000000" d="M187.7284,-144.2022C186.9387,-136.3271 186.7096,-126.875 187.0413,-118.0852"/>
<polygon fill="#000000" stroke="#000000" points="190.5511,-118.0532 187.724,-107.8425 183.5666,-117.5876 190.5511,-118.0532"/>
</g>
<!-- mississi|0&#45;8|0 -->
<g id="node6" class="node">
<title>mississi|0&#45;8|0</title>
<ellipse fill="none" stroke="#000000" cx="330.6442" cy="-90" rx="74.187" ry="18"/>
<text text-anchor="middle" x="330.6442" y="-86.3" font-family="Times,serif" font-size="14.00" fill="#000000">mississi|0&#45;8|0</text>
</g>
<!-- root&#45;&gt;mississi|0&#45;8|0 -->
<g id="edge6" class="edge">
<title>root&#45;&gt;mississi|0&#45;8|0</title>
<path fill="none" stroke="#000000" d="M216.2669,-150.1107C236.4167,-139.521 266.3681,-123.7801 290.567,-111.0625"/>
<polygon fill="#000000" stroke="#000000" points="292.3036,-114.1038 299.5273,-106.3534 289.0471,-107.9074 292.3036,-114.1038"/>
</g>
<!-- s|2&#45;3|&#45;2&#45;&gt;root -->
<g id="edge3" class="edge">
<title>s|2&#45;3|&#45;2&#45;&gt;root</title>
<path fill="none" stroke="#ff0000" d="M199.5644,-107.8425C200.352,-115.7236 200.5789,-125.1774 200.2451,-133.9647"/>
<polygon fill="#ff0000" stroke="#ff0000" points="196.7357,-133.9908 199.5599,-144.2022 203.72,-134.4583 196.7357,-133.9908"/>
</g>
<!-- issi|4&#45;8|3 -->
<g id="node4" class="node">
<title>issi|4&#45;8|3</title>
<ellipse fill="none" stroke="#000000" cx="129.6442" cy="-18" rx="52.7911" ry="18"/>
<text text-anchor="middle" x="129.6442" y="-14.3" font-family="Times,serif" font-size="14.00" fill="#000000">issi|4&#45;8|3</text>
</g>
<!-- s|2&#45;3|&#45;2&#45;&gt;issi|4&#45;8|3 -->
<g id="edge4" class="edge">
<title>s|2&#45;3|&#45;2&#45;&gt;issi|4&#45;8|3</title>
<path fill="none" stroke="#000000" d="M178.4771,-72.937C170.5436,-64.0119 160.6805,-52.9159 151.8996,-43.0373"/>
<polygon fill="#000000" stroke="#000000" points="154.4066,-40.5895 145.147,-35.4407 149.1747,-45.2401 154.4066,-40.5895"/>
</g>
<!-- sissi|3&#45;8|2 -->
<g id="node5" class="node">
<title>sissi|3&#45;8|2</title>
<ellipse fill="none" stroke="#000000" cx="257.6442" cy="-18" rx="57.6901" ry="18"/>
<text text-anchor="middle" x="257.6442" y="-14.3" font-family="Times,serif" font-size="14.00" fill="#000000">sissi|3&#45;8|2</text>
</g>
<!-- s|2&#45;3|&#45;2&#45;&gt;sissi|3&#45;8|2 -->
<g id="edge5" class="edge">
<title>s|2&#45;3|&#45;2&#45;&gt;sissi|3&#45;8|2</title>
<path fill="none" stroke="#000000" d="M208.8113,-72.937C216.7447,-64.0119 226.6078,-52.9159 235.3888,-43.0373"/>
<polygon fill="#000000" stroke="#000000" points="238.1136,-45.2401 242.1414,-35.4407 232.8817,-40.5895 238.1136,-45.2401"/>
</g>
</g>
</svg>
