<?xml version="1.0" encoding="UTF-8" standalone="no"?>
<!DOCTYPE svg PUBLIC "-//W3C//DTD SVG 1.1//EN"
 "http://www.w3.org/Graphics/SVG/1.1/DTD/svg11.dtd">
<!-- Generated by graphviz version 2.40.1 (20161225.0304)
 -->
<!-- Title: parent Pages: 1 -->
<svg width="1464pt" height="169pt"
 viewBox="0.00 0.00 1464.00 168.60" xmlns="http://www.w3.org/2000/svg" xmlns:xlink="http://www.w3.org/1999/xlink">
<g id="graph0" class="graph" transform="scale(1 1) rotate(0) translate(4 164.6)">
<title>parent</title>
<polygon fill="#ffffff" stroke="transparent" points="-4,4 -4,-164.6 1460,-164.6 1460,4 -4,4"/>
<g id="clust1" class="cluster">
<title>cluster_0</title>
<polygon fill="none" stroke="#000000" points="8,-8 8,-152.6 284,-152.6 284,-8 8,-8"/>
</g>
<g id="clust2" class="cluster">
<title>cluster_1</title>
<polygon fill="none" stroke="#000000" points="292,-8 292,-152.6 568,-152.6 568,-8 292,-8"/>
</g>
<g id="clust3" class="cluster">
<title>cluster_2</title>
<polygon fill="none" stroke="#000000" points="576,-8 576,-152.6 852,-152.6 852,-8 576,-8"/>
</g>
<g id="clust4" class="cluster">
<title>cluster_3</title>
<polygon fill="none" stroke="#000000" points="860,-8 860,-152.6 1448,-152.6 1448,-8 860,-8"/>
</g>
<!-- s0 -->
<g id="node1" class="node">
<title>s0</title>
<polygon fill="none" stroke="#000000" points="132,-23 132,-44 147,-44 147,-23 132,-23"/>
<text text-anchor="start" x="135" y="-29.8" font-family="Times,serif" font-size="14.00" fill="#000000">a</text>
<polygon fill="none" stroke="#000000" points="149,-23 149,-44 163,-44 163,-23 149,-23"/>
<text text-anchor="start" x="152" y="-29.8" font-family="Times,serif" font-size="14.00" fill="#000000">s</text>
<polygon fill="none" stroke="#000000" points="165,-23 165,-44 181,-44 181,-23 165,-23"/>
<text text-anchor="start" x="168" y="-29.8" font-family="Times,serif" font-size="14.00" fill="#000000">n</text>
<polygon fill="none" stroke="#000000" points="183,-23 183,-44 199,-44 199,-23 183,-23"/>
<text text-anchor="start" x="186" y="-29.8" font-family="Times,serif" font-size="14.00" fill="#000000">b</text>
<polygon fill="none" stroke="#000000" points="201,-23 201,-44 215,-44 215,-23 201,-23"/>
<text text-anchor="start" x="204" y="-29.8" font-family="Times,serif" font-size="14.00" fill="#000000">s</text>
<polygon fill="none" stroke="#000000" points="217,-23 217,-44 233,-44 233,-23 217,-23"/>
<text text-anchor="start" x="220" y="-29.8" font-family="Times,serif" font-size="14.00" fill="#000000">d</text>
<polygon fill="none" stroke="#000000" points="235,-23 235,-44 247,-44 247,-23 235,-23"/>
<text text-anchor="start" x="238" y="-29.8" font-family="Times,serif" font-size="14.00" fill="#000000">f</text>
<polygon fill="none" stroke="#000000" points="249,-23 249,-44 265,-44 265,-23 249,-23"/>
<text text-anchor="start" x="252" y="-29.8" font-family="Times,serif" font-size="14.00" fill="#000000">b</text>
<polygon fill="none" stroke="#000000" points="128.5,-20.5 128.5,-47.5 267.5,-47.5 267.5,-20.5 128.5,-20.5"/>
</g>
<!-- i0 -->
<g id="node2" class="node">
<title>i0</title>
<ellipse fill="#000000" stroke="#000000" cx="139" cy="-142.8" rx="1.8" ry="1.8"/>
</g>
<!-- i0&#45;&#45;s0 -->
<g id="edge1" class="edge">
<title>i0&#45;&#45;s0:s0</title>
<path fill="none" stroke="#100000" d="M139,-140.9163C139,-131.7831 139,-91.0474 139,-54.246"/>
<polygon fill="#100000" stroke="#100000" points="142.5001,-54 139,-44 135.5001,-54 142.5001,-54"/>
<text text-anchor="middle" x="141.5" y="-92.8" font-family="Times,serif" font-size="14.00" fill="#000000">i</text>
</g>
<!-- p00 -->
<g id="node3" class="node">
<title>p00</title>
<polygon fill="none" stroke="#000000" points="27,-23 27,-44 43,-44 43,-23 27,-23"/>
<text text-anchor="start" x="30" y="-29.8" font-family="Times,serif" font-size="14.00" fill="#000000">b</text>
<polygon fill="none" stroke="#000000" points="45,-23 45,-44 59,-44 59,-23 45,-23"/>
<text text-anchor="start" x="48" y="-29.8" font-family="Times,serif" font-size="14.00" fill="#000000">s</text>
<polygon fill="none" stroke="#000000" points="61,-23 61,-44 77,-44 77,-23 61,-23"/>
<text text-anchor="start" x="64" y="-29.8" font-family="Times,serif" font-size="14.00" fill="#000000">d</text>
<polygon fill="none" stroke="#000000" points="79,-23 79,-44 91,-44 91,-23 79,-23"/>
<text text-anchor="start" x="82" y="-29.8" font-family="Times,serif" font-size="14.00" fill="#000000">f</text>
<polygon fill="none" stroke="#000000" points="24,-20.5 24,-47.5 94,-47.5 94,-20.5 24,-20.5"/>
</g>
<!-- j00 -->
<g id="node4" class="node">
<title>j00</title>
<ellipse fill="#000000" stroke="#000000" cx="35" cy="-142.8" rx="1.8" ry="1.8"/>
</g>
<!-- j00&#45;&#45;p00 -->
<g id="edge2" class="edge">
<title>j00&#45;&#45;p00:p0</title>
<path fill="none" stroke="#200000" d="M35,-140.9163C35,-131.7831 35,-91.0474 35,-54.246"/>
<polygon fill="#200000" stroke="#200000" points="38.5001,-54 35,-44 31.5001,-54 38.5001,-54"/>
<text text-anchor="middle" x="37.5" y="-92.8" font-family="Times,serif" font-size="14.00" fill="#000000">j</text>
</g>
<!-- s1 -->
<g id="node5" class="node">
<title>s1</title>
<polygon fill="none" stroke="#000000" points="416,-23 416,-44 431,-44 431,-23 416,-23"/>
<text text-anchor="start" x="419" y="-29.8" font-family="Times,serif" font-size="14.00" fill="#000000">a</text>
<polygon fill="none" stroke="#000000" points="433,-23 433,-44 447,-44 447,-23 433,-23"/>
<text text-anchor="start" x="436" y="-29.8" font-family="Times,serif" font-size="14.00" fill="#000000">s</text>
<polygon fill="none" stroke="#000000" points="449,-23 449,-44 465,-44 465,-23 449,-23"/>
<text text-anchor="start" x="452" y="-29.8" font-family="Times,serif" font-size="14.00" fill="#000000">n</text>
<polygon fill="none" stroke="#000000" points="467,-23 467,-44 483,-44 483,-23 467,-23"/>
<text text-anchor="start" x="470" y="-29.8" font-family="Times,serif" font-size="14.00" fill="#000000">b</text>
<polygon fill="none" stroke="#000000" points="485,-23 485,-44 499,-44 499,-23 485,-23"/>
<text text-anchor="start" x="488" y="-29.8" font-family="Times,serif" font-size="14.00" fill="#000000">s</text>
<polygon fill="none" stroke="#000000" points="501,-23 501,-44 517,-44 517,-23 501,-23"/>
<text text-anchor="start" x="504" y="-29.8" font-family="Times,serif" font-size="14.00" fill="#000000">d</text>
<polygon fill="none" stroke="#000000" points="519,-23 519,-44 531,-44 531,-23 519,-23"/>
<text text-anchor="start" x="522" y="-29.8" font-family="Times,serif" font-size="14.00" fill="#000000">f</text>
<polygon fill="none" stroke="#000000" points="533,-23 533,-44 549,-44 549,-23 533,-23"/>
<text text-anchor="start" x="536" y="-29.8" font-family="Times,serif" font-size="14.00" fill="#000000">b</text>
<polygon fill="none" stroke="#000000" points="412.5,-20.5 412.5,-47.5 551.5,-47.5 551.5,-20.5 412.5,-20.5"/>
</g>
<!-- i1 -->
<g id="node6" class="node">
<title>i1</title>
<ellipse fill="#000000" stroke="#000000" cx="440" cy="-142.8" rx="1.8" ry="1.8"/>
</g>
<!-- i1&#45;&#45;s1 -->
<g id="edge3" class="edge">
<title>i1&#45;&#45;s1:s1</title>
<path fill="none" stroke="#300000" d="M440,-140.9163C440,-131.7831 440,-91.0474 440,-54.246"/>
<polygon fill="#300000" stroke="#300000" points="443.5001,-54 440,-44 436.5001,-54 443.5001,-54"/>
<text text-anchor="middle" x="442.5" y="-92.8" font-family="Times,serif" font-size="14.00" fill="#000000">i</text>
</g>
<!-- p10 -->
<g id="node7" class="node">
<title>p10</title>
<polygon fill="none" stroke="#000000" points="311,-23 311,-44 327,-44 327,-23 311,-23"/>
<text text-anchor="start" x="314" y="-29.8" font-family="Times,serif" font-size="14.00" fill="#000000">b</text>
<polygon fill="none" stroke="#000000" points="329,-23 329,-44 343,-44 343,-23 329,-23"/>
<text text-anchor="start" x="332" y="-29.8" font-family="Times,serif" font-size="14.00" fill="#000000">s</text>
<polygon fill="none" stroke="#000000" points="345,-23 345,-44 361,-44 361,-23 345,-23"/>
<text text-anchor="start" x="348" y="-29.8" font-family="Times,serif" font-size="14.00" fill="#000000">d</text>
<polygon fill="none" stroke="#000000" points="363,-23 363,-44 375,-44 375,-23 363,-23"/>
<text text-anchor="start" x="366" y="-29.8" font-family="Times,serif" font-size="14.00" fill="#000000">f</text>
<polygon fill="none" stroke="#000000" points="308,-20.5 308,-47.5 378,-47.5 378,-20.5 308,-20.5"/>
</g>
<!-- j10 -->
<g id="node8" class="node">
<title>j10</title>
<ellipse fill="#000000" stroke="#000000" cx="319" cy="-142.8" rx="1.8" ry="1.8"/>
</g>
<!-- j10&#45;&#45;p10 -->
<g id="edge4" class="edge">
<title>j10&#45;&#45;p10:p0</title>
<path fill="none" stroke="#400000" d="M319,-140.9163C319,-131.7831 319,-91.0474 319,-54.246"/>
<polygon fill="#400000" stroke="#400000" points="322.5001,-54 319,-44 315.5001,-54 322.5001,-54"/>
<text text-anchor="middle" x="321.5" y="-92.8" font-family="Times,serif" font-size="14.00" fill="#000000">j</text>
</g>
<!-- s2 -->
<g id="node9" class="node">
<title>s2</title>
<polygon fill="none" stroke="#000000" points="700,-23 700,-44 715,-44 715,-23 700,-23"/>
<text text-anchor="start" x="703" y="-29.8" font-family="Times,serif" font-size="14.00" fill="#000000">a</text>
<polygon fill="none" stroke="#000000" points="717,-23 717,-44 731,-44 731,-23 717,-23"/>
<text text-anchor="start" x="720" y="-29.8" font-family="Times,serif" font-size="14.00" fill="#000000">s</text>
<polygon fill="none" stroke="#000000" points="733,-23 733,-44 749,-44 749,-23 733,-23"/>
<text text-anchor="start" x="736" y="-29.8" font-family="Times,serif" font-size="14.00" fill="#000000">n</text>
<polygon fill="none" stroke="#000000" points="751,-23 751,-44 767,-44 767,-23 751,-23"/>
<text text-anchor="start" x="754" y="-29.8" font-family="Times,serif" font-size="14.00" fill="#000000">b</text>
<polygon fill="none" stroke="#000000" points="769,-23 769,-44 783,-44 783,-23 769,-23"/>
<text text-anchor="start" x="772" y="-29.8" font-family="Times,serif" font-size="14.00" fill="#000000">s</text>
<polygon fill="none" stroke="#000000" points="785,-23 785,-44 801,-44 801,-23 785,-23"/>
<text text-anchor="start" x="788" y="-29.8" font-family="Times,serif" font-size="14.00" fill="#000000">d</text>
<polygon fill="none" stroke="#000000" points="803,-23 803,-44 815,-44 815,-23 803,-23"/>
<text text-anchor="start" x="806" y="-29.8" font-family="Times,serif" font-size="14.00" fill="#000000">f</text>
<polygon fill="none" stroke="#000000" points="817,-23 817,-44 833,-44 833,-23 817,-23"/>
<text text-anchor="start" x="820" y="-29.8" font-family="Times,serif" font-size="14.00" fill="#000000">b</text>
<polygon fill="none" stroke="#000000" points="696.5,-20.5 696.5,-47.5 835.5,-47.5 835.5,-20.5 696.5,-20.5"/>
</g>
<!-- i2 -->
<g id="node10" class="node">
<title>i2</title>
<ellipse fill="#000000" stroke="#000000" cx="741" cy="-142.8" rx="1.8" ry="1.8"/>
</g>
<!-- i2&#45;&#45;s2 -->
<g id="edge5" class="edge">
<title>i2&#45;&#45;s2:s2</title>
<path fill="none" stroke="#500000" d="M741,-140.9163C741,-131.7831 741,-91.0474 741,-54.246"/>
<polygon fill="#500000" stroke="#500000" points="744.5001,-54 741,-44 737.5001,-54 744.5001,-54"/>
<text text-anchor="middle" x="743.5" y="-92.8" font-family="Times,serif" font-size="14.00" fill="#000000">i</text>
</g>
<!-- p20 -->
<g id="node11" class="node">
<title>p20</title>
<polygon fill="none" stroke="#000000" points="595,-23 595,-44 611,-44 611,-23 595,-23"/>
<text text-anchor="start" x="598" y="-29.8" font-family="Times,serif" font-size="14.00" fill="#000000">b</text>
<polygon fill="none" stroke="#000000" points="613,-23 613,-44 627,-44 627,-23 613,-23"/>
<text text-anchor="start" x="616" y="-29.8" font-family="Times,serif" font-size="14.00" fill="#000000">s</text>
<polygon fill="none" stroke="#000000" points="629,-23 629,-44 645,-44 645,-23 629,-23"/>
<text text-anchor="start" x="632" y="-29.8" font-family="Times,serif" font-size="14.00" fill="#000000">d</text>
<polygon fill="none" stroke="#000000" points="647,-23 647,-44 659,-44 659,-23 647,-23"/>
<text text-anchor="start" x="650" y="-29.8" font-family="Times,serif" font-size="14.00" fill="#000000">f</text>
<polygon fill="none" stroke="#000000" points="592,-20.5 592,-47.5 662,-47.5 662,-20.5 592,-20.5"/>
</g>
<!-- j20 -->
<g id="node12" class="node">
<title>j20</title>
<ellipse fill="#000000" stroke="#000000" cx="603" cy="-142.8" rx="1.8" ry="1.8"/>
</g>
<!-- j20&#45;&#45;p20 -->
<g id="edge6" class="edge">
<title>j20&#45;&#45;p20:p0</title>
<path fill="none" stroke="#600000" d="M603,-140.9163C603,-131.7831 603,-91.0474 603,-54.246"/>
<polygon fill="#600000" stroke="#600000" points="606.5001,-54 603,-44 599.5001,-54 606.5001,-54"/>
<text text-anchor="middle" x="605.5" y="-92.8" font-family="Times,serif" font-size="14.00" fill="#000000">j</text>
</g>
<!-- s3 -->
<g id="node13" class="node">
<title>s3</title>
<polygon fill="none" stroke="#000000" points="1296,-23 1296,-44 1311,-44 1311,-23 1296,-23"/>
<text text-anchor="start" x="1299" y="-29.8" font-family="Times,serif" font-size="14.00" fill="#000000">a</text>
<polygon fill="none" stroke="#000000" points="1313,-23 1313,-44 1327,-44 1327,-23 1313,-23"/>
<text text-anchor="start" x="1316" y="-29.8" font-family="Times,serif" font-size="14.00" fill="#000000">s</text>
<polygon fill="none" stroke="#000000" points="1329,-23 1329,-44 1345,-44 1345,-23 1329,-23"/>
<text text-anchor="start" x="1332" y="-29.8" font-family="Times,serif" font-size="14.00" fill="#000000">n</text>
<polygon fill="none" stroke="#000000" points="1347,-23 1347,-44 1363,-44 1363,-23 1347,-23"/>
<text text-anchor="start" x="1350" y="-29.8" font-family="Times,serif" font-size="14.00" fill="#000000">b</text>
<polygon fill="none" stroke="#000000" points="1365,-23 1365,-44 1379,-44 1379,-23 1365,-23"/>
<text text-anchor="start" x="1368" y="-29.8" font-family="Times,serif" font-size="14.00" fill="#000000">s</text>
<polygon fill="none" stroke="#000000" points="1381,-23 1381,-44 1397,-44 1397,-23 1381,-23"/>
<text text-anchor="start" x="1384" y="-29.8" font-family="Times,serif" font-size="14.00" fill="#000000">d</text>
<polygon fill="none" stroke="#000000" points="1399,-23 1399,-44 1411,-44 1411,-23 1399,-23"/>
<text text-anchor="start" x="1402" y="-29.8" font-family="Times,serif" font-size="14.00" fill="#000000">f</text>
<polygon fill="none" stroke="#000000" points="1413,-23 1413,-44 1429,-44 1429,-23 1413,-23"/>
<text text-anchor="start" x="1416" y="-29.8" font-family="Times,serif" font-size="14.00" fill="#000000">b</text>
<polygon fill="none" stroke="#000000" points="1292.5,-20.5 1292.5,-47.5 1431.5,-47.5 1431.5,-20.5 1292.5,-20.5"/>
</g>
<!-- i3 -->
<g id="node14" class="node">
<title>i3</title>
<ellipse fill="#000000" stroke="#000000" cx="1355" cy="-142.8" rx="1.8" ry="1.8"/>
</g>
<!-- i3&#45;&#45;s3 -->
<g id="edge7" class="edge">
<title>i3&#45;&#45;s3:s3</title>
<path fill="none" stroke="#700000" d="M1355,-140.9163C1355,-131.7831 1355,-91.0474 1355,-54.246"/>
<polygon fill="#700000" stroke="#700000" points="1358.5001,-54 1355,-44 1351.5001,-54 1358.5001,-54"/>
<text text-anchor="middle" x="1357.5" y="-92.8" font-family="Times,serif" font-size="14.00" fill="#000000">i</text>
</g>
<!-- p30 -->
<g id="node15" class="node">
<title>p30</title>
<polygon fill="none" stroke="#000000" points="1191,-23 1191,-44 1207,-44 1207,-23 1191,-23"/>
<text text-anchor="start" x="1194" y="-29.8" font-family="Times,serif" font-size="14.00" fill="#000000">b</text>
<polygon fill="none" stroke="#000000" points="1209,-23 1209,-44 1223,-44 1223,-23 1209,-23"/>
<text text-anchor="start" x="1212" y="-29.8" font-family="Times,serif" font-size="14.00" fill="#000000">s</text>
<polygon fill="none" stroke="#000000" points="1225,-23 1225,-44 1241,-44 1241,-23 1225,-23"/>
<text text-anchor="start" x="1228" y="-29.8" font-family="Times,serif" font-size="14.00" fill="#000000">d</text>
<polygon fill="none" stroke="#000000" points="1243,-23 1243,-44 1255,-44 1255,-23 1243,-23"/>
<text text-anchor="start" x="1246" y="-29.8" font-family="Times,serif" font-size="14.00" fill="#000000">f</text>
<polygon fill="none" stroke="#000000" points="1188,-20.5 1188,-47.5 1258,-47.5 1258,-20.5 1188,-20.5"/>
</g>
<!-- j30 -->
<g id="node16" class="node">
<title>j30</title>
<ellipse fill="#000000" stroke="#000000" cx="1199" cy="-142.8" rx="1.8" ry="1.8"/>
</g>
<!-- j30&#45;&#45;p30 -->
<g id="edge8" class="edge">
<title>j30&#45;&#45;p30:p0</title>
<path fill="none" stroke="#800000" d="M1199,-140.9163C1199,-131.7831 1199,-91.0474 1199,-54.246"/>
<polygon fill="#800000" stroke="#800000" points="1202.5001,-54 1199,-44 1195.5001,-54 1202.5001,-54"/>
<text text-anchor="middle" x="1201.5" y="-92.8" font-family="Times,serif" font-size="14.00" fill="#000000">j</text>
</g>
<!-- p31 -->
<g id="node17" class="node">
<title>p31</title>
<polygon fill="none" stroke="#000000" points="1087,-23 1087,-44 1103,-44 1103,-23 1087,-23"/>
<text text-anchor="start" x="1090" y="-29.8" font-family="Times,serif" font-size="14.00" fill="#000000">b</text>
<polygon fill="none" stroke="#000000" points="1105,-23 1105,-44 1119,-44 1119,-23 1105,-23"/>
<text text-anchor="start" x="1108" y="-29.8" font-family="Times,serif" font-size="14.00" fill="#000000">s</text>
<polygon fill="none" stroke="#000000" points="1121,-23 1121,-44 1137,-44 1137,-23 1121,-23"/>
<text text-anchor="start" x="1124" y="-29.8" font-family="Times,serif" font-size="14.00" fill="#000000">d</text>
<polygon fill="none" stroke="#000000" points="1139,-23 1139,-44 1151,-44 1151,-23 1139,-23"/>
<text text-anchor="start" x="1142" y="-29.8" font-family="Times,serif" font-size="14.00" fill="#000000">f</text>
<polygon fill="none" stroke="#000000" points="1084,-20.5 1084,-47.5 1154,-47.5 1154,-20.5 1084,-20.5"/>
</g>
<!-- j31 -->
<g id="node18" class="node">
<title>j31</title>
<ellipse fill="#000000" stroke="#000000" cx="1112" cy="-142.8" rx="1.8" ry="1.8"/>
</g>
<!-- j31&#45;&#45;p31 -->
<g id="edge9" class="edge">
<title>j31&#45;&#45;p31:p1</title>
<path fill="none" stroke="#900000" d="M1112,-140.9163C1112,-131.7831 1112,-91.0474 1112,-54.246"/>
<polygon fill="#900000" stroke="#900000" points="1115.5001,-54 1112,-44 1108.5001,-54 1115.5001,-54"/>
<text text-anchor="middle" x="1114.5" y="-92.8" font-family="Times,serif" font-size="14.00" fill="#000000">j</text>
</g>
<!-- p32 -->
<g id="node19" class="node">
<title>p32</title>
<polygon fill="none" stroke="#000000" points="983,-23 983,-44 999,-44 999,-23 983,-23"/>
<text text-anchor="start" x="986" y="-29.8" font-family="Times,serif" font-size="14.00" fill="#000000">b</text>
<polygon fill="none" stroke="#000000" points="1001,-23 1001,-44 1015,-44 1015,-23 1001,-23"/>
<text text-anchor="start" x="1004" y="-29.8" font-family="Times,serif" font-size="14.00" fill="#000000">s</text>
<polygon fill="none" stroke="#000000" points="1017,-23 1017,-44 1033,-44 1033,-23 1017,-23"/>
<text text-anchor="start" x="1020" y="-29.8" font-family="Times,serif" font-size="14.00" fill="#000000">d</text>
<polygon fill="none" stroke="#000000" points="1035,-23 1035,-44 1047,-44 1047,-23 1035,-23"/>
<text text-anchor="start" x="1038" y="-29.8" font-family="Times,serif" font-size="14.00" fill="#000000">f</text>
<polygon fill="none" stroke="#000000" points="980,-20.5 980,-47.5 1050,-47.5 1050,-20.5 980,-20.5"/>
</g>
<!-- j32 -->
<g id="node20" class="node">
<title>j32</title>
<ellipse fill="#000000" stroke="#000000" cx="1025" cy="-142.8" rx="1.8" ry="1.8"/>
</g>
<!-- j32&#45;&#45;p32 -->
<g id="edge10" class="edge">
<title>j32&#45;&#45;p32:p2</title>
<path fill="none" stroke="#a00000" d="M1025,-140.9163C1025,-131.7831 1025,-91.0474 1025,-54.246"/>
<polygon fill="#a00000" stroke="#a00000" points="1028.5001,-54 1025,-44 1021.5001,-54 1028.5001,-54"/>
<text text-anchor="middle" x="1027.5" y="-92.8" font-family="Times,serif" font-size="14.00" fill="#000000">j</text>
</g>
<!-- p33 -->
<g id="node21" class="node">
<title>p33</title>
<polygon fill="none" stroke="#000000" points="879,-23 879,-44 895,-44 895,-23 879,-23"/>
<text text-anchor="start" x="882" y="-29.8" font-family="Times,serif" font-size="14.00" fill="#000000">b</text>
<polygon fill="none" stroke="#000000" points="897,-23 897,-44 911,-44 911,-23 897,-23"/>
<text text-anchor="start" x="900" y="-29.8" font-family="Times,serif" font-size="14.00" fill="#000000">s</text>
<polygon fill="none" stroke="#000000" points="913,-23 913,-44 929,-44 929,-23 913,-23"/>
<text text-anchor="start" x="916" y="-29.8" font-family="Times,serif" font-size="14.00" fill="#000000">d</text>
<polygon fill="none" stroke="#000000" points="931,-23 931,-44 943,-44 943,-23 931,-23"/>
<text text-anchor="start" x="934" y="-29.8" font-family="Times,serif" font-size="14.00" fill="#000000">f</text>
<polygon fill="none" stroke="#000000" points="876,-20.5 876,-47.5 946,-47.5 946,-20.5 876,-20.5"/>
</g>
<!-- j33 -->
<g id="node22" class="node">
<title>j33</title>
<ellipse fill="#000000" stroke="#000000" cx="937" cy="-142.8" rx="1.8" ry="1.8"/>
</g>
<!-- j33&#45;&#45;p33 -->
<g id="edge11" class="edge">
<title>j33&#45;&#45;p33:p3</title>
<path fill="none" stroke="#b00000" d="M937,-140.9163C937,-131.7831 937,-91.0474 937,-54.246"/>
<polygon fill="#b00000" stroke="#b00000" points="940.5001,-54 937,-44 933.5001,-54 940.5001,-54"/>
<text text-anchor="middle" x="939.5" y="-92.8" font-family="Times,serif" font-size="14.00" fill="#000000">j</text>
</g>
</g>
</svg>
